<?xml version="1.0" encoding="utf-8" standalone="no"?>
<!DOCTYPE svg PUBLIC "-//W3C//DTD SVG 1.1//EN"
  "http://www.w3.org/Graphics/SVG/1.1/DTD/svg11.dtd">
<svg xmlns:xlink="http://www.w3.org/1999/xlink" width="702.469697pt" height="415.747687pt" viewBox="0 0 702.469697 415.747687" xmlns="http://www.w3.org/2000/svg" version="1.1">
 <metadata>
  <rdf:RDF xmlns:dc="http://purl.org/dc/elements/1.1/" xmlns:cc="http://creativecommons.org/ns#" xmlns:rdf="http://www.w3.org/1999/02/22-rdf-syntax-ns#">
   <cc:Work>
    <dc:type rdf:resource="http://purl.org/dc/dcmitype/StillImage"/>
    <dc:date>2025-08-17T22:18:15.665407</dc:date>
    <dc:format>image/svg+xml</dc:format>
    <dc:creator>
     <cc:Agent>
      <dc:title>Matplotlib v3.10.5, https://matplotlib.org/</dc:title>
     </cc:Agent>
    </dc:creator>
   </cc:Work>
  </rdf:RDF>
 </metadata>
 <defs>
  <style type="text/css">*{stroke-linejoin: round; stroke-linecap: butt}</style>
 </defs>
 <g id="figure_1">
  <g id="patch_1">
   <path d="M -0 415.747687 
L 702.469697 415.747687 
L 702.469697 0 
L -0 0 
z
" style="fill: #ffffff"/>
  </g>
  <g id="axes_1">
   <g id="patch_2">
    <path d="M 54.694063 371.980187 
L 693.2346 371.980187 
L 693.2346 53.172187 
L 54.694063 53.172187 
z
" style="fill: #ffffff"/>
   </g>
   <g id="matplotlib.axis_1">
    <g id="xtick_1">
     <g id="line2d_1">
      <defs>
       <path id="meb02b940e0" d="M 0 0 
L 0 3.5 
" style="stroke: #000000; stroke-width: 1.5"/>
      </defs>
      <g>
       <use xlink:href="#meb02b940e0" x="100.37335" y="371.980187" style="stroke: #000000; stroke-width: 1.5"/>
      </g>
     </g>
     <g id="text_1">
      <!-- 500 -->
      <g transform="translate(88.695382 389.001125) scale(0.14 -0.14)">
       <defs>
        <path id="Arial-BoldMT-35" d="M 284 1178 
L 1159 1269 
Q 1197 972 1381 798 
Q 1566 625 1806 625 
Q 2081 625 2272 848 
Q 2463 1072 2463 1522 
Q 2463 1944 2273 2155 
Q 2084 2366 1781 2366 
Q 1403 2366 1103 2031 
L 391 2134 
L 841 4519 
L 3163 4519 
L 3163 3697 
L 1506 3697 
L 1369 2919 
Q 1663 3066 1969 3066 
Q 2553 3066 2959 2641 
Q 3366 2216 3366 1538 
Q 3366 972 3038 528 
Q 2591 -78 1797 -78 
Q 1163 -78 763 262 
Q 363 603 284 1178 
z
" transform="scale(0.015625)"/>
        <path id="Arial-BoldMT-30" d="M 1756 4600 
Q 2422 4600 2797 4125 
Q 3244 3563 3244 2259 
Q 3244 959 2794 391 
Q 2422 -78 1756 -78 
Q 1088 -78 678 436 
Q 269 950 269 2269 
Q 269 3563 719 4131 
Q 1091 4600 1756 4600 
z
M 1756 3872 
Q 1597 3872 1472 3770 
Q 1347 3669 1278 3406 
Q 1188 3066 1188 2259 
Q 1188 1453 1269 1151 
Q 1350 850 1473 750 
Q 1597 650 1756 650 
Q 1916 650 2041 751 
Q 2166 853 2234 1116 
Q 2325 1453 2325 2259 
Q 2325 3066 2244 3367 
Q 2163 3669 2039 3770 
Q 1916 3872 1756 3872 
z
" transform="scale(0.015625)"/>
       </defs>
       <use xlink:href="#Arial-BoldMT-35"/>
       <use xlink:href="#Arial-BoldMT-30" transform="translate(55.615234 0)"/>
       <use xlink:href="#Arial-BoldMT-30" transform="translate(111.230469 0)"/>
      </g>
     </g>
    </g>
    <g id="xtick_2">
     <g id="line2d_2">
      <g>
       <use xlink:href="#meb02b940e0" x="224.597381" y="371.980187" style="stroke: #000000; stroke-width: 1.5"/>
      </g>
     </g>
     <g id="text_2">
      <!-- 1000 -->
      <g transform="translate(209.026756 389.001125) scale(0.14 -0.14)">
       <defs>
        <path id="Arial-BoldMT-31" d="M 2519 0 
L 1641 0 
L 1641 3309 
Q 1159 2859 506 2644 
L 506 3441 
Q 850 3553 1253 3867 
Q 1656 4181 1806 4600 
L 2519 4600 
L 2519 0 
z
" transform="scale(0.015625)"/>
       </defs>
       <use xlink:href="#Arial-BoldMT-31"/>
       <use xlink:href="#Arial-BoldMT-30" transform="translate(55.615234 0)"/>
       <use xlink:href="#Arial-BoldMT-30" transform="translate(111.230469 0)"/>
       <use xlink:href="#Arial-BoldMT-30" transform="translate(166.845703 0)"/>
      </g>
     </g>
    </g>
    <g id="xtick_3">
     <g id="line2d_3">
      <g>
       <use xlink:href="#meb02b940e0" x="348.821412" y="371.980187" style="stroke: #000000; stroke-width: 1.5"/>
      </g>
     </g>
     <g id="text_3">
      <!-- 1500 -->
      <g transform="translate(333.250787 389.001125) scale(0.14 -0.14)">
       <use xlink:href="#Arial-BoldMT-31"/>
       <use xlink:href="#Arial-BoldMT-35" transform="translate(55.615234 0)"/>
       <use xlink:href="#Arial-BoldMT-30" transform="translate(111.230469 0)"/>
       <use xlink:href="#Arial-BoldMT-30" transform="translate(166.845703 0)"/>
      </g>
     </g>
    </g>
    <g id="xtick_4">
     <g id="line2d_4">
      <g>
       <use xlink:href="#meb02b940e0" x="473.045443" y="371.980187" style="stroke: #000000; stroke-width: 1.5"/>
      </g>
     </g>
     <g id="text_4">
      <!-- 2000 -->
      <g transform="translate(457.474818 389.001125) scale(0.14 -0.14)">
       <defs>
        <path id="Arial-BoldMT-32" d="M 3238 816 
L 3238 0 
L 159 0 
Q 209 463 459 877 
Q 709 1291 1447 1975 
Q 2041 2528 2175 2725 
Q 2356 2997 2356 3263 
Q 2356 3556 2198 3714 
Q 2041 3872 1763 3872 
Q 1488 3872 1325 3706 
Q 1163 3541 1138 3156 
L 263 3244 
Q 341 3969 753 4284 
Q 1166 4600 1784 4600 
Q 2463 4600 2850 4234 
Q 3238 3869 3238 3325 
Q 3238 3016 3127 2736 
Q 3016 2456 2775 2150 
Q 2616 1947 2200 1565 
Q 1784 1184 1673 1059 
Q 1563 934 1494 816 
L 3238 816 
z
" transform="scale(0.015625)"/>
       </defs>
       <use xlink:href="#Arial-BoldMT-32"/>
       <use xlink:href="#Arial-BoldMT-30" transform="translate(55.615234 0)"/>
       <use xlink:href="#Arial-BoldMT-30" transform="translate(111.230469 0)"/>
       <use xlink:href="#Arial-BoldMT-30" transform="translate(166.845703 0)"/>
      </g>
     </g>
    </g>
    <g id="xtick_5">
     <g id="line2d_5">
      <g>
       <use xlink:href="#meb02b940e0" x="597.269474" y="371.980187" style="stroke: #000000; stroke-width: 1.5"/>
      </g>
     </g>
     <g id="text_5">
      <!-- 2500 -->
      <g transform="translate(581.698849 389.001125) scale(0.14 -0.14)">
       <use xlink:href="#Arial-BoldMT-32"/>
       <use xlink:href="#Arial-BoldMT-35" transform="translate(55.615234 0)"/>
       <use xlink:href="#Arial-BoldMT-30" transform="translate(111.230469 0)"/>
       <use xlink:href="#Arial-BoldMT-30" transform="translate(166.845703 0)"/>
      </g>
     </g>
    </g>
    <g id="text_6">
     <!-- m/z -->
     <g transform="translate(362.295113 405.784875) scale(0.14 -0.14)">
      <defs>
       <path id="Arial-BoldMT-6d" d="M 394 3319 
L 1203 3319 
L 1203 2866 
Q 1638 3394 2238 3394 
Q 2556 3394 2790 3262 
Q 3025 3131 3175 2866 
Q 3394 3131 3647 3262 
Q 3900 3394 4188 3394 
Q 4553 3394 4806 3245 
Q 5059 3097 5184 2809 
Q 5275 2597 5275 2122 
L 5275 0 
L 4397 0 
L 4397 1897 
Q 4397 2391 4306 2534 
Q 4184 2722 3931 2722 
Q 3747 2722 3584 2609 
Q 3422 2497 3350 2280 
Q 3278 2063 3278 1594 
L 3278 0 
L 2400 0 
L 2400 1819 
Q 2400 2303 2353 2443 
Q 2306 2584 2207 2653 
Q 2109 2722 1941 2722 
Q 1738 2722 1575 2612 
Q 1413 2503 1342 2297 
Q 1272 2091 1272 1613 
L 1272 0 
L 394 0 
L 394 3319 
z
" transform="scale(0.015625)"/>
       <path id="Arial-BoldMT-2f" d="M -9 -78 
L 1125 4659 
L 1784 4659 
L 638 -78 
L -9 -78 
z
" transform="scale(0.015625)"/>
       <path id="Arial-BoldMT-7a" d="M 106 0 
L 106 684 
L 1350 2113 
Q 1656 2463 1803 2609 
Q 1650 2600 1400 2597 
L 228 2591 
L 228 3319 
L 2972 3319 
L 2972 2697 
L 1703 1234 
L 1256 750 
Q 1622 772 1709 772 
L 3069 772 
L 3069 0 
L 106 0 
z
" transform="scale(0.015625)"/>
      </defs>
      <use xlink:href="#Arial-BoldMT-6d"/>
      <use xlink:href="#Arial-BoldMT-2f" transform="translate(88.916016 0)"/>
      <use xlink:href="#Arial-BoldMT-7a" transform="translate(116.699219 0)"/>
     </g>
    </g>
   </g>
   <g id="matplotlib.axis_2">
    <g id="ytick_1">
     <g id="line2d_6">
      <defs>
       <path id="md5439bc7fe" d="M 0 0 
L -3.5 0 
" style="stroke: #000000; stroke-width: 1.5"/>
      </defs>
      <g>
       <use xlink:href="#md5439bc7fe" x="54.694063" y="371.980187" style="stroke: #000000; stroke-width: 1.5"/>
      </g>
     </g>
     <g id="text_7">
      <!-- 0 -->
      <g transform="translate(39.90875 376.990656) scale(0.14 -0.14)">
       <use xlink:href="#Arial-BoldMT-30"/>
      </g>
     </g>
    </g>
    <g id="ytick_2">
     <g id="line2d_7">
      <g>
       <use xlink:href="#md5439bc7fe" x="54.694063" y="314.015097" style="stroke: #000000; stroke-width: 1.5"/>
      </g>
     </g>
     <g id="text_8">
      <!-- 20 -->
      <g transform="translate(32.123438 319.025565) scale(0.14 -0.14)">
       <use xlink:href="#Arial-BoldMT-32"/>
       <use xlink:href="#Arial-BoldMT-30" transform="translate(55.615234 0)"/>
      </g>
     </g>
    </g>
    <g id="ytick_3">
     <g id="line2d_8">
      <g>
       <use xlink:href="#md5439bc7fe" x="54.694063" y="256.050006" style="stroke: #000000; stroke-width: 1.5"/>
      </g>
     </g>
     <g id="text_9">
      <!-- 40 -->
      <g transform="translate(32.123438 261.060474) scale(0.14 -0.14)">
       <defs>
        <path id="Arial-BoldMT-34" d="M 1994 0 
L 1994 922 
L 119 922 
L 119 1691 
L 2106 4600 
L 2844 4600 
L 2844 1694 
L 3413 1694 
L 3413 922 
L 2844 922 
L 2844 0 
L 1994 0 
z
M 1994 1694 
L 1994 3259 
L 941 1694 
L 1994 1694 
z
" transform="scale(0.015625)"/>
       </defs>
       <use xlink:href="#Arial-BoldMT-34"/>
       <use xlink:href="#Arial-BoldMT-30" transform="translate(55.615234 0)"/>
      </g>
     </g>
    </g>
    <g id="ytick_4">
     <g id="line2d_9">
      <g>
       <use xlink:href="#md5439bc7fe" x="54.694063" y="198.084915" style="stroke: #000000; stroke-width: 1.5"/>
      </g>
     </g>
     <g id="text_10">
      <!-- 60 -->
      <g transform="translate(32.123438 203.095384) scale(0.14 -0.14)">
       <defs>
        <path id="Arial-BoldMT-36" d="M 3247 3459 
L 2397 3366 
Q 2366 3628 2234 3753 
Q 2103 3878 1894 3878 
Q 1616 3878 1423 3628 
Q 1231 3378 1181 2588 
Q 1509 2975 1997 2975 
Q 2547 2975 2939 2556 
Q 3331 2138 3331 1475 
Q 3331 772 2918 347 
Q 2506 -78 1859 -78 
Q 1166 -78 719 461 
Q 272 1000 272 2228 
Q 272 3488 737 4044 
Q 1203 4600 1947 4600 
Q 2469 4600 2811 4308 
Q 3153 4016 3247 3459 
z
M 1256 1544 
Q 1256 1116 1453 883 
Q 1650 650 1903 650 
Q 2147 650 2309 840 
Q 2472 1031 2472 1466 
Q 2472 1913 2297 2120 
Q 2122 2328 1859 2328 
Q 1606 2328 1431 2129 
Q 1256 1931 1256 1544 
z
" transform="scale(0.015625)"/>
       </defs>
       <use xlink:href="#Arial-BoldMT-36"/>
       <use xlink:href="#Arial-BoldMT-30" transform="translate(55.615234 0)"/>
      </g>
     </g>
    </g>
    <g id="ytick_5">
     <g id="line2d_10">
      <g>
       <use xlink:href="#md5439bc7fe" x="54.694063" y="140.119824" style="stroke: #000000; stroke-width: 1.5"/>
      </g>
     </g>
     <g id="text_11">
      <!-- 80 -->
      <g transform="translate(32.123438 145.130293) scale(0.14 -0.14)">
       <defs>
        <path id="Arial-BoldMT-38" d="M 1025 2472 
Q 684 2616 529 2867 
Q 375 3119 375 3419 
Q 375 3931 733 4265 
Q 1091 4600 1750 4600 
Q 2403 4600 2764 4265 
Q 3125 3931 3125 3419 
Q 3125 3100 2959 2851 
Q 2794 2603 2494 2472 
Q 2875 2319 3073 2025 
Q 3272 1731 3272 1347 
Q 3272 713 2867 316 
Q 2463 -81 1791 -81 
Q 1166 -81 750 247 
Q 259 634 259 1309 
Q 259 1681 443 1992 
Q 628 2303 1025 2472 
z
M 1206 3356 
Q 1206 3094 1354 2947 
Q 1503 2800 1750 2800 
Q 2000 2800 2150 2948 
Q 2300 3097 2300 3359 
Q 2300 3606 2151 3754 
Q 2003 3903 1759 3903 
Q 1506 3903 1356 3753 
Q 1206 3603 1206 3356 
z
M 1125 1394 
Q 1125 1031 1311 828 
Q 1497 625 1775 625 
Q 2047 625 2225 820 
Q 2403 1016 2403 1384 
Q 2403 1706 2222 1901 
Q 2041 2097 1763 2097 
Q 1441 2097 1283 1875 
Q 1125 1653 1125 1394 
z
" transform="scale(0.015625)"/>
       </defs>
       <use xlink:href="#Arial-BoldMT-38"/>
       <use xlink:href="#Arial-BoldMT-30" transform="translate(55.615234 0)"/>
      </g>
     </g>
    </g>
    <g id="ytick_6">
     <g id="line2d_11">
      <g>
       <use xlink:href="#md5439bc7fe" x="54.694063" y="82.154733" style="stroke: #000000; stroke-width: 1.5"/>
      </g>
     </g>
     <g id="text_12">
      <!-- 100 -->
      <g transform="translate(24.338125 87.165202) scale(0.14 -0.14)">
       <use xlink:href="#Arial-BoldMT-31"/>
       <use xlink:href="#Arial-BoldMT-30" transform="translate(55.615234 0)"/>
       <use xlink:href="#Arial-BoldMT-30" transform="translate(111.230469 0)"/>
      </g>
     </g>
    </g>
    <g id="text_13">
     <!-- Relative Abundance (%) -->
     <g transform="translate(17.391562 292.045875) rotate(-90) scale(0.14 -0.14)">
      <defs>
       <path id="Arial-BoldMT-52" d="M 469 0 
L 469 4581 
L 2416 4581 
Q 3150 4581 3483 4457 
Q 3816 4334 4016 4018 
Q 4216 3703 4216 3297 
Q 4216 2781 3912 2445 
Q 3609 2109 3006 2022 
Q 3306 1847 3501 1637 
Q 3697 1428 4028 894 
L 4588 0 
L 3481 0 
L 2813 997 
Q 2456 1531 2325 1670 
Q 2194 1809 2047 1861 
Q 1900 1913 1581 1913 
L 1394 1913 
L 1394 0 
L 469 0 
z
M 1394 2644 
L 2078 2644 
Q 2744 2644 2909 2700 
Q 3075 2756 3169 2893 
Q 3263 3031 3263 3238 
Q 3263 3469 3139 3611 
Q 3016 3753 2791 3791 
Q 2678 3806 2116 3806 
L 1394 3806 
L 1394 2644 
z
" transform="scale(0.015625)"/>
       <path id="Arial-BoldMT-65" d="M 2381 1056 
L 3256 909 
Q 3088 428 2723 176 
Q 2359 -75 1813 -75 
Q 947 -75 531 491 
Q 203 944 203 1634 
Q 203 2459 634 2926 
Q 1066 3394 1725 3394 
Q 2466 3394 2894 2905 
Q 3322 2416 3303 1406 
L 1103 1406 
Q 1113 1016 1316 798 
Q 1519 581 1822 581 
Q 2028 581 2168 693 
Q 2309 806 2381 1056 
z
M 2431 1944 
Q 2422 2325 2234 2523 
Q 2047 2722 1778 2722 
Q 1491 2722 1303 2513 
Q 1116 2303 1119 1944 
L 2431 1944 
z
" transform="scale(0.015625)"/>
       <path id="Arial-BoldMT-6c" d="M 459 0 
L 459 4581 
L 1338 4581 
L 1338 0 
L 459 0 
z
" transform="scale(0.015625)"/>
       <path id="Arial-BoldMT-61" d="M 1116 2306 
L 319 2450 
Q 453 2931 781 3162 
Q 1109 3394 1756 3394 
Q 2344 3394 2631 3255 
Q 2919 3116 3036 2902 
Q 3153 2688 3153 2116 
L 3144 1091 
Q 3144 653 3186 445 
Q 3228 238 3344 0 
L 2475 0 
Q 2441 88 2391 259 
Q 2369 338 2359 363 
Q 2134 144 1878 34 
Q 1622 -75 1331 -75 
Q 819 -75 523 203 
Q 228 481 228 906 
Q 228 1188 362 1408 
Q 497 1628 739 1745 
Q 981 1863 1438 1950 
Q 2053 2066 2291 2166 
L 2291 2253 
Q 2291 2506 2166 2614 
Q 2041 2722 1694 2722 
Q 1459 2722 1328 2630 
Q 1197 2538 1116 2306 
z
M 2291 1594 
Q 2122 1538 1756 1459 
Q 1391 1381 1278 1306 
Q 1106 1184 1106 997 
Q 1106 813 1243 678 
Q 1381 544 1594 544 
Q 1831 544 2047 700 
Q 2206 819 2256 991 
Q 2291 1103 2291 1419 
L 2291 1594 
z
" transform="scale(0.015625)"/>
       <path id="Arial-BoldMT-74" d="M 1981 3319 
L 1981 2619 
L 1381 2619 
L 1381 1281 
Q 1381 875 1398 808 
Q 1416 741 1477 697 
Q 1538 653 1625 653 
Q 1747 653 1978 738 
L 2053 56 
Q 1747 -75 1359 -75 
Q 1122 -75 931 4 
Q 741 84 652 211 
Q 563 338 528 553 
Q 500 706 500 1172 
L 500 2619 
L 97 2619 
L 97 3319 
L 500 3319 
L 500 3978 
L 1381 4491 
L 1381 3319 
L 1981 3319 
z
" transform="scale(0.015625)"/>
       <path id="Arial-BoldMT-69" d="M 459 3769 
L 459 4581 
L 1338 4581 
L 1338 3769 
L 459 3769 
z
M 459 0 
L 459 3319 
L 1338 3319 
L 1338 0 
L 459 0 
z
" transform="scale(0.015625)"/>
       <path id="Arial-BoldMT-76" d="M 1372 0 
L 34 3319 
L 956 3319 
L 1581 1625 
L 1763 1059 
Q 1834 1275 1853 1344 
Q 1897 1484 1947 1625 
L 2578 3319 
L 3481 3319 
L 2163 0 
L 1372 0 
z
" transform="scale(0.015625)"/>
       <path id="Arial-BoldMT-20" transform="scale(0.015625)"/>
       <path id="Arial-BoldMT-41" d="M 4597 0 
L 3591 0 
L 3191 1041 
L 1359 1041 
L 981 0 
L 0 0 
L 1784 4581 
L 2763 4581 
L 4597 0 
z
M 2894 1813 
L 2263 3513 
L 1644 1813 
L 2894 1813 
z
" transform="scale(0.015625)"/>
       <path id="Arial-BoldMT-62" d="M 422 0 
L 422 4581 
L 1300 4581 
L 1300 2931 
Q 1706 3394 2263 3394 
Q 2869 3394 3266 2955 
Q 3663 2516 3663 1694 
Q 3663 844 3258 384 
Q 2853 -75 2275 -75 
Q 1991 -75 1714 67 
Q 1438 209 1238 488 
L 1238 0 
L 422 0 
z
M 1294 1731 
Q 1294 1216 1456 969 
Q 1684 619 2063 619 
Q 2353 619 2558 867 
Q 2763 1116 2763 1650 
Q 2763 2219 2556 2470 
Q 2350 2722 2028 2722 
Q 1713 2722 1503 2476 
Q 1294 2231 1294 1731 
z
" transform="scale(0.015625)"/>
       <path id="Arial-BoldMT-75" d="M 2644 0 
L 2644 497 
Q 2463 231 2167 78 
Q 1872 -75 1544 -75 
Q 1209 -75 943 72 
Q 678 219 559 484 
Q 441 750 441 1219 
L 441 3319 
L 1319 3319 
L 1319 1794 
Q 1319 1094 1367 936 
Q 1416 778 1544 686 
Q 1672 594 1869 594 
Q 2094 594 2272 717 
Q 2450 841 2515 1023 
Q 2581 1206 2581 1919 
L 2581 3319 
L 3459 3319 
L 3459 0 
L 2644 0 
z
" transform="scale(0.015625)"/>
       <path id="Arial-BoldMT-6e" d="M 3478 0 
L 2600 0 
L 2600 1694 
Q 2600 2231 2544 2389 
Q 2488 2547 2361 2634 
Q 2234 2722 2056 2722 
Q 1828 2722 1647 2597 
Q 1466 2472 1398 2265 
Q 1331 2059 1331 1503 
L 1331 0 
L 453 0 
L 453 3319 
L 1269 3319 
L 1269 2831 
Q 1703 3394 2363 3394 
Q 2653 3394 2893 3289 
Q 3134 3184 3257 3021 
Q 3381 2859 3429 2653 
Q 3478 2447 3478 2063 
L 3478 0 
z
" transform="scale(0.015625)"/>
       <path id="Arial-BoldMT-64" d="M 3503 0 
L 2688 0 
L 2688 488 
Q 2484 203 2207 64 
Q 1931 -75 1650 -75 
Q 1078 -75 670 386 
Q 263 847 263 1672 
Q 263 2516 659 2955 
Q 1056 3394 1663 3394 
Q 2219 3394 2625 2931 
L 2625 4581 
L 3503 4581 
L 3503 0 
z
M 1159 1731 
Q 1159 1200 1306 963 
Q 1519 619 1900 619 
Q 2203 619 2415 876 
Q 2628 1134 2628 1647 
Q 2628 2219 2422 2470 
Q 2216 2722 1894 2722 
Q 1581 2722 1370 2473 
Q 1159 2225 1159 1731 
z
" transform="scale(0.015625)"/>
       <path id="Arial-BoldMT-63" d="M 3353 2338 
L 2488 2181 
Q 2444 2441 2289 2572 
Q 2134 2703 1888 2703 
Q 1559 2703 1364 2476 
Q 1169 2250 1169 1719 
Q 1169 1128 1367 884 
Q 1566 641 1900 641 
Q 2150 641 2309 783 
Q 2469 925 2534 1272 
L 3397 1125 
Q 3263 531 2881 228 
Q 2500 -75 1859 -75 
Q 1131 -75 698 384 
Q 266 844 266 1656 
Q 266 2478 700 2936 
Q 1134 3394 1875 3394 
Q 2481 3394 2839 3133 
Q 3197 2872 3353 2338 
z
" transform="scale(0.015625)"/>
       <path id="Arial-BoldMT-28" d="M 1916 -1347 
L 1313 -1347 
Q 834 -625 584 153 
Q 334 931 334 1659 
Q 334 2563 644 3369 
Q 913 4069 1325 4659 
L 1925 4659 
Q 1497 3713 1336 3048 
Q 1175 2384 1175 1641 
Q 1175 1128 1270 590 
Q 1366 53 1531 -431 
Q 1641 -750 1916 -1347 
z
" transform="scale(0.015625)"/>
       <path id="Arial-BoldMT-25" d="M 278 3450 
Q 278 4066 548 4362 
Q 819 4659 1281 4659 
Q 1759 4659 2029 4364 
Q 2300 4069 2300 3450 
Q 2300 2834 2029 2537 
Q 1759 2241 1297 2241 
Q 819 2241 548 2536 
Q 278 2831 278 3450 
z
M 963 3456 
Q 963 3009 1066 2856 
Q 1144 2744 1281 2744 
Q 1422 2744 1500 2856 
Q 1600 3009 1600 3456 
Q 1600 3903 1500 4053 
Q 1422 4169 1281 4169 
Q 1144 4169 1066 4056 
Q 963 3903 963 3456 
z
M 1950 -175 
L 1300 -175 
L 3741 4659 
L 4372 4659 
L 1950 -175 
z
M 3369 1028 
Q 3369 1644 3639 1941 
Q 3909 2238 4378 2238 
Q 4850 2238 5120 1941 
Q 5391 1644 5391 1028 
Q 5391 409 5120 112 
Q 4850 -184 4388 -184 
Q 3909 -184 3639 112 
Q 3369 409 3369 1028 
z
M 4053 1031 
Q 4053 584 4156 434 
Q 4234 319 4372 319 
Q 4513 319 4588 431 
Q 4691 584 4691 1031 
Q 4691 1478 4591 1631 
Q 4513 1744 4372 1744 
Q 4231 1744 4156 1631 
Q 4053 1478 4053 1031 
z
" transform="scale(0.015625)"/>
       <path id="Arial-BoldMT-29" d="M 216 -1347 
Q 475 -791 581 -494 
Q 688 -197 778 190 
Q 869 578 912 926 
Q 956 1275 956 1641 
Q 956 2384 797 3048 
Q 638 3713 209 4659 
L 806 4659 
Q 1278 3988 1539 3234 
Q 1800 2481 1800 1706 
Q 1800 1053 1594 306 
Q 1359 -531 822 -1347 
L 216 -1347 
z
" transform="scale(0.015625)"/>
      </defs>
      <use xlink:href="#Arial-BoldMT-52"/>
      <use xlink:href="#Arial-BoldMT-65" transform="translate(72.216797 0)"/>
      <use xlink:href="#Arial-BoldMT-6c" transform="translate(127.832031 0)"/>
      <use xlink:href="#Arial-BoldMT-61" transform="translate(155.615234 0)"/>
      <use xlink:href="#Arial-BoldMT-74" transform="translate(211.230469 0)"/>
      <use xlink:href="#Arial-BoldMT-69" transform="translate(244.53125 0)"/>
      <use xlink:href="#Arial-BoldMT-76" transform="translate(272.314453 0)"/>
      <use xlink:href="#Arial-BoldMT-65" transform="translate(327.929688 0)"/>
      <use xlink:href="#Arial-BoldMT-20" transform="translate(383.544922 0)"/>
      <use xlink:href="#Arial-BoldMT-41" transform="translate(407.578125 0)"/>
      <use xlink:href="#Arial-BoldMT-62" transform="translate(479.794922 0)"/>
      <use xlink:href="#Arial-BoldMT-75" transform="translate(540.878906 0)"/>
      <use xlink:href="#Arial-BoldMT-6e" transform="translate(601.962891 0)"/>
      <use xlink:href="#Arial-BoldMT-64" transform="translate(663.046875 0)"/>
      <use xlink:href="#Arial-BoldMT-61" transform="translate(724.130859 0)"/>
      <use xlink:href="#Arial-BoldMT-6e" transform="translate(779.746094 0)"/>
      <use xlink:href="#Arial-BoldMT-63" transform="translate(840.830078 0)"/>
      <use xlink:href="#Arial-BoldMT-65" transform="translate(896.445312 0)"/>
      <use xlink:href="#Arial-BoldMT-20" transform="translate(952.060547 0)"/>
      <use xlink:href="#Arial-BoldMT-28" transform="translate(979.84375 0)"/>
      <use xlink:href="#Arial-BoldMT-25" transform="translate(1013.144531 0)"/>
      <use xlink:href="#Arial-BoldMT-29" transform="translate(1102.060547 0)"/>
     </g>
    </g>
   </g>
   <g id="LineCollection_1">
    <path d="M 67.116466 371.980187 
L 67.116466 82.154733 
" clip-path="url(#p09cfb1db12)" style="fill: none; stroke: #808080; stroke-width: 2"/>
   </g>
   <g id="line2d_12">
    <defs>
     <path id="m41b86dc493" d="M 0 1.5 
C 0.397805 1.5 0.77937 1.341951 1.06066 1.06066 
C 1.341951 0.77937 1.5 0.397805 1.5 0 
C 1.5 -0.397805 1.341951 -0.77937 1.06066 -1.06066 
C 0.77937 -1.341951 0.397805 -1.5 0 -1.5 
C -0.397805 -1.5 -0.77937 -1.341951 -1.06066 -1.06066 
C -1.341951 -0.77937 -1.5 -0.397805 -1.5 0 
C -1.5 0.397805 -1.341951 0.77937 -1.06066 1.06066 
C -0.77937 1.341951 -0.397805 1.5 0 1.5 
z
" style="stroke: #ff0000"/>
    </defs>
    <g clip-path="url(#p09cfb1db12)">
     <use xlink:href="#m41b86dc493" x="67.116466" y="82.154733" style="fill: #ff0000; stroke: #ff0000"/>
    </g>
   </g>
   <g id="line2d_13"/>
   <g id="LineCollection_2">
    <path d="M 88.984019 371.980187 
L 88.984019 366.267882 
" clip-path="url(#p09cfb1db12)" style="fill: none; stroke: #808080; stroke-width: 2"/>
   </g>
   <g id="line2d_14">
    <g clip-path="url(#p09cfb1db12)">
     <use xlink:href="#m41b86dc493" x="88.984019" y="366.267882" style="fill: #ff0000; stroke: #ff0000"/>
    </g>
   </g>
   <g id="line2d_15"/>
   <g id="LineCollection_3">
    <path d="M 107.378965 371.980187 
L 107.378965 348.094856 
" clip-path="url(#p09cfb1db12)" style="fill: none; stroke: #808080; stroke-width: 2"/>
   </g>
   <g id="line2d_16">
    <g clip-path="url(#p09cfb1db12)">
     <use xlink:href="#m41b86dc493" x="107.378965" y="348.094856" style="fill: #ff0000; stroke: #ff0000"/>
    </g>
   </g>
   <g id="line2d_17"/>
   <g id="LineCollection_4">
    <path d="M 139.438852 371.980187 
L 139.438852 273.848431 
" clip-path="url(#p09cfb1db12)" style="fill: none; stroke: #808080; stroke-width: 2"/>
   </g>
   <g id="line2d_18">
    <g clip-path="url(#p09cfb1db12)">
     <use xlink:href="#m41b86dc493" x="139.438852" y="273.848431" style="fill: #ff0000; stroke: #ff0000"/>
    </g>
   </g>
   <g id="line2d_19"/>
   <g id="LineCollection_5">
    <path d="M 157.833946 371.980187 
L 157.833946 365.753503 
" clip-path="url(#p09cfb1db12)" style="fill: none; stroke: #808080; stroke-width: 2"/>
   </g>
   <g id="line2d_20">
    <g clip-path="url(#p09cfb1db12)">
     <use xlink:href="#m41b86dc493" x="157.833946" y="365.753503" style="fill: #ff0000; stroke: #ff0000"/>
    </g>
   </g>
   <g id="line2d_21"/>
   <g id="LineCollection_6">
    <path d="M 188.914302 371.980187 
L 188.914302 364.318018 
" clip-path="url(#p09cfb1db12)" style="fill: none; stroke: #808080; stroke-width: 2"/>
   </g>
   <g id="line2d_22">
    <g clip-path="url(#p09cfb1db12)">
     <use xlink:href="#m41b86dc493" x="188.914302" y="364.318018" style="fill: #ff0000; stroke: #ff0000"/>
    </g>
   </g>
   <g id="line2d_23"/>
   <g id="LineCollection_7">
    <path d="M 217.010275 371.980187 
L 217.010275 362.201965 
" clip-path="url(#p09cfb1db12)" style="fill: none; stroke: #808080; stroke-width: 2"/>
   </g>
   <g id="line2d_24">
    <g clip-path="url(#p09cfb1db12)">
     <use xlink:href="#m41b86dc493" x="217.010275" y="362.201965" style="fill: #ff0000; stroke: #ff0000"/>
    </g>
   </g>
   <g id="line2d_25"/>
   <g id="LineCollection_8">
    <path d="M 217.756985 371.980187 
L 217.756985 326.374463 
" clip-path="url(#p09cfb1db12)" style="fill: none; stroke: #808080; stroke-width: 2"/>
   </g>
   <g id="line2d_26">
    <g clip-path="url(#p09cfb1db12)">
     <use xlink:href="#m41b86dc493" x="217.756985" y="326.374463" style="fill: #ff0000; stroke: #ff0000"/>
    </g>
   </g>
   <g id="line2d_27"/>
   <g id="LineCollection_9">
    <path d="M 234.657888 371.980187 
L 234.657888 347.559588 
" clip-path="url(#p09cfb1db12)" style="fill: none; stroke: #808080; stroke-width: 2"/>
   </g>
   <g id="line2d_28">
    <g clip-path="url(#p09cfb1db12)">
     <use xlink:href="#m41b86dc493" x="234.657888" y="347.559588" style="fill: #ff0000; stroke: #ff0000"/>
    </g>
   </g>
   <g id="line2d_29"/>
   <g id="LineCollection_10">
    <path d="M 242.983805 371.980187 
L 242.983805 357.794993 
" clip-path="url(#p09cfb1db12)" style="fill: none; stroke: #808080; stroke-width: 2"/>
   </g>
   <g id="line2d_30">
    <g clip-path="url(#p09cfb1db12)">
     <use xlink:href="#m41b86dc493" x="242.983805" y="357.794993" style="fill: #ff0000; stroke: #ff0000"/>
    </g>
   </g>
   <g id="line2d_31"/>
   <g id="LineCollection_11">
    <path d="M 263.116446 371.980187 
L 263.116446 357.982552 
" clip-path="url(#p09cfb1db12)" style="fill: none; stroke: #808080; stroke-width: 2"/>
   </g>
   <g id="line2d_32">
    <g clip-path="url(#p09cfb1db12)">
     <use xlink:href="#m41b86dc493" x="263.116446" y="357.982552" style="fill: #ff0000; stroke: #ff0000"/>
    </g>
   </g>
   <g id="line2d_33"/>
   <g id="LineCollection_12">
    <path d="M 283.248838 371.980187 
L 283.248838 342.993602 
" clip-path="url(#p09cfb1db12)" style="fill: none; stroke: #808080; stroke-width: 2"/>
   </g>
   <g id="line2d_34">
    <g clip-path="url(#p09cfb1db12)">
     <use xlink:href="#m41b86dc493" x="283.248838" y="342.993602" style="fill: #ff0000; stroke: #ff0000"/>
    </g>
   </g>
   <g id="line2d_35"/>
   <g id="LineCollection_13">
    <path d="M 308.473472 371.980187 
L 308.473472 362.243686 
" clip-path="url(#p09cfb1db12)" style="fill: none; stroke: #808080; stroke-width: 2"/>
   </g>
   <g id="line2d_36">
    <g clip-path="url(#p09cfb1db12)">
     <use xlink:href="#m41b86dc493" x="308.473472" y="362.243686" style="fill: #ff0000; stroke: #ff0000"/>
    </g>
   </g>
   <g id="line2d_37"/>
   <g id="LineCollection_14">
    <path d="M 328.602833 371.980187 
L 328.602833 348.037576 
" clip-path="url(#p09cfb1db12)" style="fill: none; stroke: #808080; stroke-width: 2"/>
   </g>
   <g id="line2d_38">
    <g clip-path="url(#p09cfb1db12)">
     <use xlink:href="#m41b86dc493" x="328.602833" y="348.037576" style="fill: #ff0000; stroke: #ff0000"/>
    </g>
   </g>
   <g id="line2d_39"/>
   <g id="LineCollection_15">
    <path d="M 408.6607 371.980187 
L 408.6607 352.932612 
" clip-path="url(#p09cfb1db12)" style="fill: none; stroke: #808080; stroke-width: 2"/>
   </g>
   <g id="line2d_40">
    <g clip-path="url(#p09cfb1db12)">
     <use xlink:href="#m41b86dc493" x="408.6607" y="352.932612" style="fill: #ff0000; stroke: #ff0000"/>
    </g>
   </g>
   <g id="line2d_41"/>
   <g id="LineCollection_16">
    <path d="M 459.115283 371.980187 
L 459.115283 172.821685 
" clip-path="url(#p09cfb1db12)" style="fill: none; stroke: #808080; stroke-width: 2"/>
   </g>
   <g id="line2d_42">
    <g clip-path="url(#p09cfb1db12)">
     <use xlink:href="#m41b86dc493" x="459.115283" y="172.821685" style="fill: #ff0000; stroke: #ff0000"/>
    </g>
   </g>
   <g id="line2d_43"/>
   <g id="LineCollection_17">
    <path d="M 509.574588 371.980187 
L 509.574588 350.345664 
" clip-path="url(#p09cfb1db12)" style="fill: none; stroke: #808080; stroke-width: 2"/>
   </g>
   <g id="line2d_44">
    <g clip-path="url(#p09cfb1db12)">
     <use xlink:href="#m41b86dc493" x="509.574588" y="350.345664" style="fill: #ff0000; stroke: #ff0000"/>
    </g>
   </g>
   <g id="line2d_45"/>
   <g id="LineCollection_18">
    <path d="M 549.82941 371.980187 
L 549.82941 351.048757 
" clip-path="url(#p09cfb1db12)" style="fill: none; stroke: #808080; stroke-width: 2"/>
   </g>
   <g id="line2d_46">
    <g clip-path="url(#p09cfb1db12)">
     <use xlink:href="#m41b86dc493" x="549.82941" y="351.048757" style="fill: #ff0000; stroke: #ff0000"/>
    </g>
   </g>
   <g id="line2d_47"/>
   <g id="LineCollection_19">
    <path d="M 590.092679 371.980187 
L 590.092679 326.24847 
" clip-path="url(#p09cfb1db12)" style="fill: none; stroke: #808080; stroke-width: 2"/>
   </g>
   <g id="line2d_48">
    <g clip-path="url(#p09cfb1db12)">
     <use xlink:href="#m41b86dc493" x="590.092679" y="326.24847" style="fill: #ff0000; stroke: #ff0000"/>
    </g>
   </g>
   <g id="line2d_49"/>
   <g id="LineCollection_20">
    <path d="M 680.812197 371.980187 
L 680.812197 357.268014 
" clip-path="url(#p09cfb1db12)" style="fill: none; stroke: #808080; stroke-width: 2"/>
   </g>
   <g id="line2d_50">
    <g clip-path="url(#p09cfb1db12)">
     <use xlink:href="#m41b86dc493" x="680.812197" y="357.268014" style="fill: #ff0000; stroke: #ff0000"/>
    </g>
   </g>
   <g id="line2d_51"/>
   <g id="patch_3">
    <path d="M 54.694063 371.980187 
L 54.694063 53.172188 
" style="fill: none; stroke: #000000; stroke-width: 1.5; stroke-linejoin: miter; stroke-linecap: square"/>
   </g>
   <g id="patch_4">
    <path d="M 54.694063 371.980187 
L 693.2346 371.980187 
" style="fill: none; stroke: #000000; stroke-width: 1.5; stroke-linejoin: miter; stroke-linecap: square"/>
   </g>
   <g id="text_14">
    <!-- 1H+ -->
    <g style="fill: #ff0000" transform="translate(60.598262 95.264599) scale(0.07 -0.07)">
     <defs>
      <path id="Arial-BoldMT-48" d="M 469 0 
L 469 4581 
L 1394 4581 
L 1394 2778 
L 3206 2778 
L 3206 4581 
L 4131 4581 
L 4131 0 
L 3206 0 
L 3206 2003 
L 1394 2003 
L 1394 0 
L 469 0 
z
" transform="scale(0.015625)"/>
      <path id="Arial-BoldMT-2b" d="M 1466 659 
L 1466 1850 
L 266 1850 
L 266 2672 
L 1466 2672 
L 1466 3863 
L 2266 3863 
L 2266 2672 
L 3469 2672 
L 3469 1850 
L 2266 1850 
L 2266 659 
L 1466 659 
z
" transform="scale(0.015625)"/>
     </defs>
     <use xlink:href="#Arial-BoldMT-31"/>
     <use xlink:href="#Arial-BoldMT-48" transform="translate(55.615234 0)"/>
     <use xlink:href="#Arial-BoldMT-2b" transform="translate(127.832031 0)"/>
    </g>
   </g>
   <g id="text_15">
    <!-- 366.14 -->
    <g style="fill: #0000ff" transform="translate(54.883341 74.779474) scale(0.08 -0.08)">
     <defs>
      <path id="Arial-BoldMT-33" d="M 241 1216 
L 1091 1319 
Q 1131 994 1309 822 
Q 1488 650 1741 650 
Q 2013 650 2198 856 
Q 2384 1063 2384 1413 
Q 2384 1744 2206 1937 
Q 2028 2131 1772 2131 
Q 1603 2131 1369 2066 
L 1466 2781 
Q 1822 2772 2009 2936 
Q 2197 3100 2197 3372 
Q 2197 3603 2059 3740 
Q 1922 3878 1694 3878 
Q 1469 3878 1309 3722 
Q 1150 3566 1116 3266 
L 306 3403 
Q 391 3819 561 4067 
Q 731 4316 1036 4458 
Q 1341 4600 1719 4600 
Q 2366 4600 2756 4188 
Q 3078 3850 3078 3425 
Q 3078 2822 2419 2463 
Q 2813 2378 3048 2084 
Q 3284 1791 3284 1375 
Q 3284 772 2843 347 
Q 2403 -78 1747 -78 
Q 1125 -78 715 280 
Q 306 638 241 1216 
z
" transform="scale(0.015625)"/>
      <path id="Arial-BoldMT-2e" d="M 459 0 
L 459 878 
L 1338 878 
L 1338 0 
L 459 0 
z
" transform="scale(0.015625)"/>
     </defs>
     <use xlink:href="#Arial-BoldMT-33"/>
     <use xlink:href="#Arial-BoldMT-36" transform="translate(55.615234 0)"/>
     <use xlink:href="#Arial-BoldMT-36" transform="translate(111.230469 0)"/>
     <use xlink:href="#Arial-BoldMT-2e" transform="translate(166.845703 0)"/>
     <use xlink:href="#Arial-BoldMT-31" transform="translate(194.628906 0)"/>
     <use xlink:href="#Arial-BoldMT-34" transform="translate(250.244141 0)"/>
    </g>
   </g>
   <g id="text_16">
    <!-- Y-HexNAc1-Hex1-B -->
    <g transform="translate(30.658341 60.288201) scale(0.08 -0.08)">
     <defs>
      <path id="Arial-BoldMT-59" d="M 1669 0 
L 1669 1928 
L -9 4581 
L 1075 4581 
L 2153 2769 
L 3209 4581 
L 4275 4581 
L 2591 1922 
L 2591 0 
L 1669 0 
z
" transform="scale(0.015625)"/>
      <path id="Arial-BoldMT-2d" d="M 359 1222 
L 359 2100 
L 2084 2100 
L 2084 1222 
L 359 1222 
z
" transform="scale(0.015625)"/>
      <path id="Arial-BoldMT-78" d="M 38 0 
L 1234 1709 
L 88 3319 
L 1159 3319 
L 1747 2406 
L 2366 3319 
L 3397 3319 
L 2272 1747 
L 3500 0 
L 2422 0 
L 1747 1028 
L 1066 0 
L 38 0 
z
" transform="scale(0.015625)"/>
      <path id="Arial-BoldMT-4e" d="M 475 0 
L 475 4581 
L 1375 4581 
L 3250 1522 
L 3250 4581 
L 4109 4581 
L 4109 0 
L 3181 0 
L 1334 2988 
L 1334 0 
L 475 0 
z
" transform="scale(0.015625)"/>
      <path id="Arial-BoldMT-42" d="M 469 4581 
L 2300 4581 
Q 2844 4581 3111 4536 
Q 3378 4491 3589 4347 
Q 3800 4203 3940 3964 
Q 4081 3725 4081 3428 
Q 4081 3106 3907 2837 
Q 3734 2569 3438 2434 
Q 3856 2313 4081 2019 
Q 4306 1725 4306 1328 
Q 4306 1016 4161 720 
Q 4016 425 3764 248 
Q 3513 72 3144 31 
Q 2913 6 2028 0 
L 469 0 
L 469 4581 
z
M 1394 3819 
L 1394 2759 
L 2000 2759 
Q 2541 2759 2672 2775 
Q 2909 2803 3045 2939 
Q 3181 3075 3181 3297 
Q 3181 3509 3064 3642 
Q 2947 3775 2716 3803 
Q 2578 3819 1925 3819 
L 1394 3819 
z
M 1394 1997 
L 1394 772 
L 2250 772 
Q 2750 772 2884 800 
Q 3091 838 3220 983 
Q 3350 1128 3350 1372 
Q 3350 1578 3250 1722 
Q 3150 1866 2961 1931 
Q 2772 1997 2141 1997 
L 1394 1997 
z
" transform="scale(0.015625)"/>
     </defs>
     <use xlink:href="#Arial-BoldMT-59"/>
     <use xlink:href="#Arial-BoldMT-2d" transform="translate(61.199219 0)"/>
     <use xlink:href="#Arial-BoldMT-48" transform="translate(94.5 0)"/>
     <use xlink:href="#Arial-BoldMT-65" transform="translate(166.716797 0)"/>
     <use xlink:href="#Arial-BoldMT-78" transform="translate(222.332031 0)"/>
     <use xlink:href="#Arial-BoldMT-4e" transform="translate(277.947266 0)"/>
     <use xlink:href="#Arial-BoldMT-41" transform="translate(350.164062 0)"/>
     <use xlink:href="#Arial-BoldMT-63" transform="translate(422.380859 0)"/>
     <use xlink:href="#Arial-BoldMT-31" transform="translate(477.996094 0)"/>
     <use xlink:href="#Arial-BoldMT-2d" transform="translate(533.611328 0)"/>
     <use xlink:href="#Arial-BoldMT-48" transform="translate(566.912109 0)"/>
     <use xlink:href="#Arial-BoldMT-65" transform="translate(639.128906 0)"/>
     <use xlink:href="#Arial-BoldMT-78" transform="translate(694.744141 0)"/>
     <use xlink:href="#Arial-BoldMT-31" transform="translate(750.359375 0)"/>
     <use xlink:href="#Arial-BoldMT-2d" transform="translate(805.974609 0)"/>
     <use xlink:href="#Arial-BoldMT-42" transform="translate(839.275391 0)"/>
    </g>
   </g>
   <g id="text_17">
    <!-- 1H+ -->
    <g style="fill: #ff0000" transform="translate(82.465816 361.988221) scale(0.07 -0.07)">
     <use xlink:href="#Arial-BoldMT-31"/>
     <use xlink:href="#Arial-BoldMT-48" transform="translate(55.615234 0)"/>
     <use xlink:href="#Arial-BoldMT-2b" transform="translate(127.832031 0)"/>
    </g>
   </g>
   <g id="text_18">
    <!-- 454.16 -->
    <g style="fill: #0000ff" transform="translate(76.750894 341.503095) scale(0.08 -0.08)">
     <use xlink:href="#Arial-BoldMT-34"/>
     <use xlink:href="#Arial-BoldMT-35" transform="translate(55.615234 0)"/>
     <use xlink:href="#Arial-BoldMT-34" transform="translate(111.230469 0)"/>
     <use xlink:href="#Arial-BoldMT-2e" transform="translate(166.845703 0)"/>
     <use xlink:href="#Arial-BoldMT-31" transform="translate(194.628906 0)"/>
     <use xlink:href="#Arial-BoldMT-36" transform="translate(250.244141 0)"/>
    </g>
   </g>
   <g id="text_19">
    <!-- Hex1-NeuAc1-B -->
    <g transform="translate(91.057769 328.590573) rotate(-90) scale(0.08 -0.08)">
     <use xlink:href="#Arial-BoldMT-48"/>
     <use xlink:href="#Arial-BoldMT-65" transform="translate(72.216797 0)"/>
     <use xlink:href="#Arial-BoldMT-78" transform="translate(127.832031 0)"/>
     <use xlink:href="#Arial-BoldMT-31" transform="translate(183.447266 0)"/>
     <use xlink:href="#Arial-BoldMT-2d" transform="translate(239.0625 0)"/>
     <use xlink:href="#Arial-BoldMT-4e" transform="translate(272.363281 0)"/>
     <use xlink:href="#Arial-BoldMT-65" transform="translate(344.580078 0)"/>
     <use xlink:href="#Arial-BoldMT-75" transform="translate(400.195312 0)"/>
     <use xlink:href="#Arial-BoldMT-41" transform="translate(461.279297 0)"/>
     <use xlink:href="#Arial-BoldMT-63" transform="translate(533.496094 0)"/>
     <use xlink:href="#Arial-BoldMT-31" transform="translate(589.111328 0)"/>
     <use xlink:href="#Arial-BoldMT-2d" transform="translate(644.726562 0)"/>
     <use xlink:href="#Arial-BoldMT-42" transform="translate(678.027344 0)"/>
    </g>
   </g>
   <g id="text_20">
    <!-- 1H+ -->
    <g style="fill: #ff0000" transform="translate(100.860762 361.204723) scale(0.07 -0.07)">
     <use xlink:href="#Arial-BoldMT-31"/>
     <use xlink:href="#Arial-BoldMT-48" transform="translate(55.615234 0)"/>
     <use xlink:href="#Arial-BoldMT-2b" transform="translate(127.832031 0)"/>
    </g>
   </g>
   <g id="text_21">
    <!-- 528.20 -->
    <g style="fill: #0000ff" transform="translate(95.14584 340.719597) scale(0.08 -0.08)">
     <use xlink:href="#Arial-BoldMT-35"/>
     <use xlink:href="#Arial-BoldMT-32" transform="translate(55.615234 0)"/>
     <use xlink:href="#Arial-BoldMT-38" transform="translate(111.230469 0)"/>
     <use xlink:href="#Arial-BoldMT-2e" transform="translate(166.845703 0)"/>
     <use xlink:href="#Arial-BoldMT-32" transform="translate(194.628906 0)"/>
     <use xlink:href="#Arial-BoldMT-30" transform="translate(250.244141 0)"/>
    </g>
   </g>
   <g id="text_22">
    <!-- Y-HexNAc1-Hex2-B -->
    <g transform="translate(109.452715 327.807074) rotate(-90) scale(0.08 -0.08)">
     <use xlink:href="#Arial-BoldMT-59"/>
     <use xlink:href="#Arial-BoldMT-2d" transform="translate(61.199219 0)"/>
     <use xlink:href="#Arial-BoldMT-48" transform="translate(94.5 0)"/>
     <use xlink:href="#Arial-BoldMT-65" transform="translate(166.716797 0)"/>
     <use xlink:href="#Arial-BoldMT-78" transform="translate(222.332031 0)"/>
     <use xlink:href="#Arial-BoldMT-4e" transform="translate(277.947266 0)"/>
     <use xlink:href="#Arial-BoldMT-41" transform="translate(350.164062 0)"/>
     <use xlink:href="#Arial-BoldMT-63" transform="translate(422.380859 0)"/>
     <use xlink:href="#Arial-BoldMT-31" transform="translate(477.996094 0)"/>
     <use xlink:href="#Arial-BoldMT-2d" transform="translate(533.611328 0)"/>
     <use xlink:href="#Arial-BoldMT-48" transform="translate(566.912109 0)"/>
     <use xlink:href="#Arial-BoldMT-65" transform="translate(639.128906 0)"/>
     <use xlink:href="#Arial-BoldMT-78" transform="translate(694.744141 0)"/>
     <use xlink:href="#Arial-BoldMT-32" transform="translate(750.359375 0)"/>
     <use xlink:href="#Arial-BoldMT-2d" transform="translate(805.974609 0)"/>
     <use xlink:href="#Arial-BoldMT-42" transform="translate(839.275391 0)"/>
    </g>
   </g>
   <g id="text_23">
    <!-- 1H+ -->
    <g style="fill: #ff0000" transform="translate(132.920649 286.958297) scale(0.07 -0.07)">
     <use xlink:href="#Arial-BoldMT-31"/>
     <use xlink:href="#Arial-BoldMT-48" transform="translate(55.615234 0)"/>
     <use xlink:href="#Arial-BoldMT-2b" transform="translate(127.832031 0)"/>
    </g>
   </g>
   <g id="text_24">
    <!-- 657.24 -->
    <g style="fill: #0000ff" transform="translate(127.205727 266.473172) scale(0.08 -0.08)">
     <defs>
      <path id="Arial-BoldMT-37" d="M 272 3703 
L 272 4519 
L 3275 4519 
L 3275 3881 
Q 2903 3516 2518 2831 
Q 2134 2147 1932 1376 
Q 1731 606 1734 0 
L 888 0 
Q 909 950 1279 1937 
Q 1650 2925 2269 3703 
L 272 3703 
z
" transform="scale(0.015625)"/>
     </defs>
     <use xlink:href="#Arial-BoldMT-36"/>
     <use xlink:href="#Arial-BoldMT-35" transform="translate(55.615234 0)"/>
     <use xlink:href="#Arial-BoldMT-37" transform="translate(111.230469 0)"/>
     <use xlink:href="#Arial-BoldMT-2e" transform="translate(166.845703 0)"/>
     <use xlink:href="#Arial-BoldMT-32" transform="translate(194.628906 0)"/>
     <use xlink:href="#Arial-BoldMT-34" transform="translate(250.244141 0)"/>
    </g>
   </g>
   <g id="text_25">
    <!-- HexNAc1-Hex1-NeuAc1-B -->
    <g transform="translate(141.512602 253.560649) rotate(-90) scale(0.08 -0.08)">
     <use xlink:href="#Arial-BoldMT-48"/>
     <use xlink:href="#Arial-BoldMT-65" transform="translate(72.216797 0)"/>
     <use xlink:href="#Arial-BoldMT-78" transform="translate(127.832031 0)"/>
     <use xlink:href="#Arial-BoldMT-4e" transform="translate(183.447266 0)"/>
     <use xlink:href="#Arial-BoldMT-41" transform="translate(255.664062 0)"/>
     <use xlink:href="#Arial-BoldMT-63" transform="translate(327.880859 0)"/>
     <use xlink:href="#Arial-BoldMT-31" transform="translate(383.496094 0)"/>
     <use xlink:href="#Arial-BoldMT-2d" transform="translate(439.111328 0)"/>
     <use xlink:href="#Arial-BoldMT-48" transform="translate(472.412109 0)"/>
     <use xlink:href="#Arial-BoldMT-65" transform="translate(544.628906 0)"/>
     <use xlink:href="#Arial-BoldMT-78" transform="translate(600.244141 0)"/>
     <use xlink:href="#Arial-BoldMT-31" transform="translate(655.859375 0)"/>
     <use xlink:href="#Arial-BoldMT-2d" transform="translate(711.474609 0)"/>
     <use xlink:href="#Arial-BoldMT-4e" transform="translate(744.775391 0)"/>
     <use xlink:href="#Arial-BoldMT-65" transform="translate(816.992188 0)"/>
     <use xlink:href="#Arial-BoldMT-75" transform="translate(872.607422 0)"/>
     <use xlink:href="#Arial-BoldMT-41" transform="translate(933.691406 0)"/>
     <use xlink:href="#Arial-BoldMT-63" transform="translate(1005.908203 0)"/>
     <use xlink:href="#Arial-BoldMT-31" transform="translate(1061.523438 0)"/>
     <use xlink:href="#Arial-BoldMT-2d" transform="translate(1117.138672 0)"/>
     <use xlink:href="#Arial-BoldMT-42" transform="translate(1150.439453 0)"/>
    </g>
   </g>
   <g id="text_26">
    <!-- 1H+ -->
    <g style="fill: #ff0000" transform="translate(151.315743 364.802272) scale(0.07 -0.07)">
     <use xlink:href="#Arial-BoldMT-31"/>
     <use xlink:href="#Arial-BoldMT-48" transform="translate(55.615234 0)"/>
     <use xlink:href="#Arial-BoldMT-2b" transform="translate(127.832031 0)"/>
    </g>
   </g>
   <g id="text_27">
    <!-- 731.28 -->
    <g style="fill: #0000ff" transform="translate(145.600821 344.317147) scale(0.08 -0.08)">
     <use xlink:href="#Arial-BoldMT-37"/>
     <use xlink:href="#Arial-BoldMT-33" transform="translate(55.615234 0)"/>
     <use xlink:href="#Arial-BoldMT-31" transform="translate(111.230469 0)"/>
     <use xlink:href="#Arial-BoldMT-2e" transform="translate(166.845703 0)"/>
     <use xlink:href="#Arial-BoldMT-32" transform="translate(194.628906 0)"/>
     <use xlink:href="#Arial-BoldMT-38" transform="translate(250.244141 0)"/>
    </g>
   </g>
   <g id="text_28">
    <!-- YY-HexNAc2-Hex2-B -->
    <g transform="translate(159.907696 331.404624) rotate(-90) scale(0.08 -0.08)">
     <use xlink:href="#Arial-BoldMT-59"/>
     <use xlink:href="#Arial-BoldMT-59" transform="translate(66.699219 0)"/>
     <use xlink:href="#Arial-BoldMT-2d" transform="translate(127.898438 0)"/>
     <use xlink:href="#Arial-BoldMT-48" transform="translate(161.199219 0)"/>
     <use xlink:href="#Arial-BoldMT-65" transform="translate(233.416016 0)"/>
     <use xlink:href="#Arial-BoldMT-78" transform="translate(289.03125 0)"/>
     <use xlink:href="#Arial-BoldMT-4e" transform="translate(344.646484 0)"/>
     <use xlink:href="#Arial-BoldMT-41" transform="translate(416.863281 0)"/>
     <use xlink:href="#Arial-BoldMT-63" transform="translate(489.080078 0)"/>
     <use xlink:href="#Arial-BoldMT-32" transform="translate(544.695312 0)"/>
     <use xlink:href="#Arial-BoldMT-2d" transform="translate(600.310547 0)"/>
     <use xlink:href="#Arial-BoldMT-48" transform="translate(633.611328 0)"/>
     <use xlink:href="#Arial-BoldMT-65" transform="translate(705.828125 0)"/>
     <use xlink:href="#Arial-BoldMT-78" transform="translate(761.443359 0)"/>
     <use xlink:href="#Arial-BoldMT-32" transform="translate(817.058594 0)"/>
     <use xlink:href="#Arial-BoldMT-2d" transform="translate(872.673828 0)"/>
     <use xlink:href="#Arial-BoldMT-42" transform="translate(905.974609 0)"/>
    </g>
   </g>
   <g id="text_29">
    <!-- 1H+ -->
    <g style="fill: #ff0000" transform="translate(182.396099 364.802272) scale(0.07 -0.07)">
     <use xlink:href="#Arial-BoldMT-31"/>
     <use xlink:href="#Arial-BoldMT-48" transform="translate(55.615234 0)"/>
     <use xlink:href="#Arial-BoldMT-2b" transform="translate(127.832031 0)"/>
    </g>
   </g>
   <g id="text_30">
    <!-- 856.38 -->
    <g style="fill: #0000ff" transform="translate(176.681177 344.317147) scale(0.08 -0.08)">
     <use xlink:href="#Arial-BoldMT-38"/>
     <use xlink:href="#Arial-BoldMT-35" transform="translate(55.615234 0)"/>
     <use xlink:href="#Arial-BoldMT-36" transform="translate(111.230469 0)"/>
     <use xlink:href="#Arial-BoldMT-2e" transform="translate(166.845703 0)"/>
     <use xlink:href="#Arial-BoldMT-33" transform="translate(194.628906 0)"/>
     <use xlink:href="#Arial-BoldMT-38" transform="translate(250.244141 0)"/>
    </g>
   </g>
   <g id="text_31">
    <!-- b7 -->
    <g transform="translate(184.246802 329.825874) scale(0.08 -0.08)">
     <use xlink:href="#Arial-BoldMT-62"/>
     <use xlink:href="#Arial-BoldMT-37" transform="translate(61.083984 0)"/>
    </g>
   </g>
   <g id="text_32">
    <!-- 1H+ -->
    <g style="fill: #ff0000" transform="translate(210.492071 364.802272) scale(0.07 -0.07)">
     <use xlink:href="#Arial-BoldMT-31"/>
     <use xlink:href="#Arial-BoldMT-48" transform="translate(55.615234 0)"/>
     <use xlink:href="#Arial-BoldMT-2b" transform="translate(127.832031 0)"/>
    </g>
   </g>
   <g id="text_33">
    <!-- 969.46 -->
    <g style="fill: #0000ff" transform="translate(204.77715 344.317147) scale(0.08 -0.08)">
     <defs>
      <path id="Arial-BoldMT-39" d="M 291 1059 
L 1141 1153 
Q 1172 894 1303 769 
Q 1434 644 1650 644 
Q 1922 644 2112 894 
Q 2303 1144 2356 1931 
Q 2025 1547 1528 1547 
Q 988 1547 595 1964 
Q 203 2381 203 3050 
Q 203 3747 617 4173 
Q 1031 4600 1672 4600 
Q 2369 4600 2816 4061 
Q 3263 3522 3263 2288 
Q 3263 1031 2797 475 
Q 2331 -81 1584 -81 
Q 1047 -81 715 205 
Q 384 491 291 1059 
z
M 2278 2978 
Q 2278 3403 2083 3637 
Q 1888 3872 1631 3872 
Q 1388 3872 1227 3680 
Q 1066 3488 1066 3050 
Q 1066 2606 1241 2398 
Q 1416 2191 1678 2191 
Q 1931 2191 2104 2391 
Q 2278 2591 2278 2978 
z
" transform="scale(0.015625)"/>
     </defs>
     <use xlink:href="#Arial-BoldMT-39"/>
     <use xlink:href="#Arial-BoldMT-36" transform="translate(55.615234 0)"/>
     <use xlink:href="#Arial-BoldMT-39" transform="translate(111.230469 0)"/>
     <use xlink:href="#Arial-BoldMT-2e" transform="translate(166.845703 0)"/>
     <use xlink:href="#Arial-BoldMT-34" transform="translate(194.628906 0)"/>
     <use xlink:href="#Arial-BoldMT-36" transform="translate(250.244141 0)"/>
    </g>
   </g>
   <g id="text_34">
    <!-- b8 -->
    <g transform="translate(212.342775 329.825874) scale(0.08 -0.08)">
     <use xlink:href="#Arial-BoldMT-62"/>
     <use xlink:href="#Arial-BoldMT-38" transform="translate(61.083984 0)"/>
    </g>
   </g>
   <g id="text_35">
    <!-- 2H+ -->
    <g style="fill: #ff0000" transform="translate(211.238782 324.993056) scale(0.07 -0.07)">
     <use xlink:href="#Arial-BoldMT-32"/>
     <use xlink:href="#Arial-BoldMT-48" transform="translate(55.615234 0)"/>
     <use xlink:href="#Arial-BoldMT-2b" transform="translate(127.832031 0)"/>
    </g>
   </g>
   <g id="text_36">
    <!-- 972.47 -->
    <g style="fill: #0000ff" transform="translate(205.52386 304.507931) scale(0.08 -0.08)">
     <use xlink:href="#Arial-BoldMT-39"/>
     <use xlink:href="#Arial-BoldMT-37" transform="translate(55.615234 0)"/>
     <use xlink:href="#Arial-BoldMT-32" transform="translate(111.230469 0)"/>
     <use xlink:href="#Arial-BoldMT-2e" transform="translate(166.845703 0)"/>
     <use xlink:href="#Arial-BoldMT-34" transform="translate(194.628906 0)"/>
     <use xlink:href="#Arial-BoldMT-37" transform="translate(250.244141 0)"/>
    </g>
   </g>
   <g id="text_37">
    <!-- Y-HexNAc1-PEP -->
    <g transform="translate(219.830735 291.595408) rotate(-90) scale(0.08 -0.08)">
     <defs>
      <path id="Arial-BoldMT-50" d="M 466 0 
L 466 4581 
L 1950 4581 
Q 2794 4581 3050 4513 
Q 3444 4409 3709 4064 
Q 3975 3719 3975 3172 
Q 3975 2750 3822 2462 
Q 3669 2175 3433 2011 
Q 3197 1847 2953 1794 
Q 2622 1728 1994 1728 
L 1391 1728 
L 1391 0 
L 466 0 
z
M 1391 3806 
L 1391 2506 
L 1897 2506 
Q 2444 2506 2628 2578 
Q 2813 2650 2917 2803 
Q 3022 2956 3022 3159 
Q 3022 3409 2875 3571 
Q 2728 3734 2503 3775 
Q 2338 3806 1838 3806 
L 1391 3806 
z
" transform="scale(0.015625)"/>
      <path id="Arial-BoldMT-45" d="M 466 0 
L 466 4581 
L 3863 4581 
L 3863 3806 
L 1391 3806 
L 1391 2791 
L 3691 2791 
L 3691 2019 
L 1391 2019 
L 1391 772 
L 3950 772 
L 3950 0 
L 466 0 
z
" transform="scale(0.015625)"/>
     </defs>
     <use xlink:href="#Arial-BoldMT-59"/>
     <use xlink:href="#Arial-BoldMT-2d" transform="translate(61.199219 0)"/>
     <use xlink:href="#Arial-BoldMT-48" transform="translate(94.5 0)"/>
     <use xlink:href="#Arial-BoldMT-65" transform="translate(166.716797 0)"/>
     <use xlink:href="#Arial-BoldMT-78" transform="translate(222.332031 0)"/>
     <use xlink:href="#Arial-BoldMT-4e" transform="translate(277.947266 0)"/>
     <use xlink:href="#Arial-BoldMT-41" transform="translate(350.164062 0)"/>
     <use xlink:href="#Arial-BoldMT-63" transform="translate(422.380859 0)"/>
     <use xlink:href="#Arial-BoldMT-31" transform="translate(477.996094 0)"/>
     <use xlink:href="#Arial-BoldMT-2d" transform="translate(533.611328 0)"/>
     <use xlink:href="#Arial-BoldMT-50" transform="translate(566.912109 0)"/>
     <use xlink:href="#Arial-BoldMT-45" transform="translate(633.611328 0)"/>
     <use xlink:href="#Arial-BoldMT-50" transform="translate(700.310547 0)"/>
    </g>
   </g>
   <g id="text_38">
    <!-- 1H+ -->
    <g style="fill: #ff0000" transform="translate(228.139685 360.669455) scale(0.07 -0.07)">
     <use xlink:href="#Arial-BoldMT-31"/>
     <use xlink:href="#Arial-BoldMT-48" transform="translate(55.615234 0)"/>
     <use xlink:href="#Arial-BoldMT-2b" transform="translate(127.832031 0)"/>
    </g>
   </g>
   <g id="text_39">
    <!-- 1040.49 -->
    <g style="fill: #0000ff" transform="translate(220.200388 340.184329) scale(0.08 -0.08)">
     <use xlink:href="#Arial-BoldMT-31"/>
     <use xlink:href="#Arial-BoldMT-30" transform="translate(55.615234 0)"/>
     <use xlink:href="#Arial-BoldMT-34" transform="translate(111.230469 0)"/>
     <use xlink:href="#Arial-BoldMT-30" transform="translate(166.845703 0)"/>
     <use xlink:href="#Arial-BoldMT-2e" transform="translate(222.460938 0)"/>
     <use xlink:href="#Arial-BoldMT-34" transform="translate(250.244141 0)"/>
     <use xlink:href="#Arial-BoldMT-39" transform="translate(305.859375 0)"/>
    </g>
   </g>
   <g id="text_40">
    <!-- b9 -->
    <g transform="translate(229.990388 325.693057) scale(0.08 -0.08)">
     <use xlink:href="#Arial-BoldMT-62"/>
     <use xlink:href="#Arial-BoldMT-39" transform="translate(61.083984 0)"/>
    </g>
   </g>
   <g id="text_41">
    <!-- 2H+ -->
    <g style="fill: #ff0000" transform="translate(236.465602 364.802272) scale(0.07 -0.07)">
     <use xlink:href="#Arial-BoldMT-32"/>
     <use xlink:href="#Arial-BoldMT-48" transform="translate(55.615234 0)"/>
     <use xlink:href="#Arial-BoldMT-2b" transform="translate(127.832031 0)"/>
    </g>
   </g>
   <g id="text_42">
    <!-- 1074.01 -->
    <g style="fill: #0000ff" transform="translate(228.526305 344.317147) scale(0.08 -0.08)">
     <use xlink:href="#Arial-BoldMT-31"/>
     <use xlink:href="#Arial-BoldMT-30" transform="translate(55.615234 0)"/>
     <use xlink:href="#Arial-BoldMT-37" transform="translate(111.230469 0)"/>
     <use xlink:href="#Arial-BoldMT-34" transform="translate(166.845703 0)"/>
     <use xlink:href="#Arial-BoldMT-2e" transform="translate(222.460938 0)"/>
     <use xlink:href="#Arial-BoldMT-30" transform="translate(250.244141 0)"/>
     <use xlink:href="#Arial-BoldMT-31" transform="translate(305.859375 0)"/>
    </g>
   </g>
   <g id="text_43">
    <!-- Y-HexNAc2-PEP -->
    <g transform="translate(245.057555 331.404624) rotate(-90) scale(0.08 -0.08)">
     <use xlink:href="#Arial-BoldMT-59"/>
     <use xlink:href="#Arial-BoldMT-2d" transform="translate(61.199219 0)"/>
     <use xlink:href="#Arial-BoldMT-48" transform="translate(94.5 0)"/>
     <use xlink:href="#Arial-BoldMT-65" transform="translate(166.716797 0)"/>
     <use xlink:href="#Arial-BoldMT-78" transform="translate(222.332031 0)"/>
     <use xlink:href="#Arial-BoldMT-4e" transform="translate(277.947266 0)"/>
     <use xlink:href="#Arial-BoldMT-41" transform="translate(350.164062 0)"/>
     <use xlink:href="#Arial-BoldMT-63" transform="translate(422.380859 0)"/>
     <use xlink:href="#Arial-BoldMT-32" transform="translate(477.996094 0)"/>
     <use xlink:href="#Arial-BoldMT-2d" transform="translate(533.611328 0)"/>
     <use xlink:href="#Arial-BoldMT-50" transform="translate(566.912109 0)"/>
     <use xlink:href="#Arial-BoldMT-45" transform="translate(633.611328 0)"/>
     <use xlink:href="#Arial-BoldMT-50" transform="translate(700.310547 0)"/>
    </g>
   </g>
   <g id="text_44">
    <!-- 2H+ -->
    <g style="fill: #ff0000" transform="translate(256.598243 364.802272) scale(0.07 -0.07)">
     <use xlink:href="#Arial-BoldMT-32"/>
     <use xlink:href="#Arial-BoldMT-48" transform="translate(55.615234 0)"/>
     <use xlink:href="#Arial-BoldMT-2b" transform="translate(127.832031 0)"/>
    </g>
   </g>
   <g id="text_45">
    <!-- 1155.04 -->
    <g style="fill: #0000ff" transform="translate(248.878946 344.317147) scale(0.08 -0.08)">
     <use xlink:href="#Arial-BoldMT-31"/>
     <use xlink:href="#Arial-BoldMT-31" transform="translate(50.115234 0)"/>
     <use xlink:href="#Arial-BoldMT-35" transform="translate(105.730469 0)"/>
     <use xlink:href="#Arial-BoldMT-35" transform="translate(161.345703 0)"/>
     <use xlink:href="#Arial-BoldMT-2e" transform="translate(216.960938 0)"/>
     <use xlink:href="#Arial-BoldMT-30" transform="translate(244.744141 0)"/>
     <use xlink:href="#Arial-BoldMT-34" transform="translate(300.359375 0)"/>
    </g>
   </g>
   <g id="text_46">
    <!-- YY-HexNAc2-Hex1-PEP -->
    <g transform="translate(265.190196 331.404624) rotate(-90) scale(0.08 -0.08)">
     <use xlink:href="#Arial-BoldMT-59"/>
     <use xlink:href="#Arial-BoldMT-59" transform="translate(66.699219 0)"/>
     <use xlink:href="#Arial-BoldMT-2d" transform="translate(127.898438 0)"/>
     <use xlink:href="#Arial-BoldMT-48" transform="translate(161.199219 0)"/>
     <use xlink:href="#Arial-BoldMT-65" transform="translate(233.416016 0)"/>
     <use xlink:href="#Arial-BoldMT-78" transform="translate(289.03125 0)"/>
     <use xlink:href="#Arial-BoldMT-4e" transform="translate(344.646484 0)"/>
     <use xlink:href="#Arial-BoldMT-41" transform="translate(416.863281 0)"/>
     <use xlink:href="#Arial-BoldMT-63" transform="translate(489.080078 0)"/>
     <use xlink:href="#Arial-BoldMT-32" transform="translate(544.695312 0)"/>
     <use xlink:href="#Arial-BoldMT-2d" transform="translate(600.310547 0)"/>
     <use xlink:href="#Arial-BoldMT-48" transform="translate(633.611328 0)"/>
     <use xlink:href="#Arial-BoldMT-65" transform="translate(705.828125 0)"/>
     <use xlink:href="#Arial-BoldMT-78" transform="translate(761.443359 0)"/>
     <use xlink:href="#Arial-BoldMT-31" transform="translate(817.058594 0)"/>
     <use xlink:href="#Arial-BoldMT-2d" transform="translate(872.673828 0)"/>
     <use xlink:href="#Arial-BoldMT-50" transform="translate(905.974609 0)"/>
     <use xlink:href="#Arial-BoldMT-45" transform="translate(972.673828 0)"/>
     <use xlink:href="#Arial-BoldMT-50" transform="translate(1039.373047 0)"/>
    </g>
   </g>
   <g id="text_47">
    <!-- 2H+ -->
    <g style="fill: #ff0000" transform="translate(276.730635 356.103468) scale(0.07 -0.07)">
     <use xlink:href="#Arial-BoldMT-32"/>
     <use xlink:href="#Arial-BoldMT-48" transform="translate(55.615234 0)"/>
     <use xlink:href="#Arial-BoldMT-2b" transform="translate(127.832031 0)"/>
    </g>
   </g>
   <g id="text_48">
    <!-- 1236.07 -->
    <g style="fill: #0000ff" transform="translate(268.791338 335.618343) scale(0.08 -0.08)">
     <use xlink:href="#Arial-BoldMT-31"/>
     <use xlink:href="#Arial-BoldMT-32" transform="translate(55.615234 0)"/>
     <use xlink:href="#Arial-BoldMT-33" transform="translate(111.230469 0)"/>
     <use xlink:href="#Arial-BoldMT-36" transform="translate(166.845703 0)"/>
     <use xlink:href="#Arial-BoldMT-2e" transform="translate(222.460938 0)"/>
     <use xlink:href="#Arial-BoldMT-30" transform="translate(250.244141 0)"/>
     <use xlink:href="#Arial-BoldMT-37" transform="translate(305.859375 0)"/>
    </g>
   </g>
   <g id="text_49">
    <!-- Y-HexNAc2-Hex2-PEP -->
    <g transform="translate(285.322588 322.70582) rotate(-90) scale(0.08 -0.08)">
     <use xlink:href="#Arial-BoldMT-59"/>
     <use xlink:href="#Arial-BoldMT-2d" transform="translate(61.199219 0)"/>
     <use xlink:href="#Arial-BoldMT-48" transform="translate(94.5 0)"/>
     <use xlink:href="#Arial-BoldMT-65" transform="translate(166.716797 0)"/>
     <use xlink:href="#Arial-BoldMT-78" transform="translate(222.332031 0)"/>
     <use xlink:href="#Arial-BoldMT-4e" transform="translate(277.947266 0)"/>
     <use xlink:href="#Arial-BoldMT-41" transform="translate(350.164062 0)"/>
     <use xlink:href="#Arial-BoldMT-63" transform="translate(422.380859 0)"/>
     <use xlink:href="#Arial-BoldMT-32" transform="translate(477.996094 0)"/>
     <use xlink:href="#Arial-BoldMT-2d" transform="translate(533.611328 0)"/>
     <use xlink:href="#Arial-BoldMT-48" transform="translate(566.912109 0)"/>
     <use xlink:href="#Arial-BoldMT-65" transform="translate(639.128906 0)"/>
     <use xlink:href="#Arial-BoldMT-78" transform="translate(694.744141 0)"/>
     <use xlink:href="#Arial-BoldMT-32" transform="translate(750.359375 0)"/>
     <use xlink:href="#Arial-BoldMT-2d" transform="translate(805.974609 0)"/>
     <use xlink:href="#Arial-BoldMT-50" transform="translate(839.275391 0)"/>
     <use xlink:href="#Arial-BoldMT-45" transform="translate(905.974609 0)"/>
     <use xlink:href="#Arial-BoldMT-50" transform="translate(972.673828 0)"/>
    </g>
   </g>
   <g id="text_50">
    <!-- 2H+ -->
    <g style="fill: #ff0000" transform="translate(301.955269 364.802272) scale(0.07 -0.07)">
     <use xlink:href="#Arial-BoldMT-32"/>
     <use xlink:href="#Arial-BoldMT-48" transform="translate(55.615234 0)"/>
     <use xlink:href="#Arial-BoldMT-2b" transform="translate(127.832031 0)"/>
    </g>
   </g>
   <g id="text_51">
    <!-- 1337.60 -->
    <g style="fill: #0000ff" transform="translate(294.015972 344.317147) scale(0.08 -0.08)">
     <use xlink:href="#Arial-BoldMT-31"/>
     <use xlink:href="#Arial-BoldMT-33" transform="translate(55.615234 0)"/>
     <use xlink:href="#Arial-BoldMT-33" transform="translate(111.230469 0)"/>
     <use xlink:href="#Arial-BoldMT-37" transform="translate(166.845703 0)"/>
     <use xlink:href="#Arial-BoldMT-2e" transform="translate(222.460938 0)"/>
     <use xlink:href="#Arial-BoldMT-36" transform="translate(250.244141 0)"/>
     <use xlink:href="#Arial-BoldMT-30" transform="translate(305.859375 0)"/>
    </g>
   </g>
   <g id="text_52">
    <!-- YY-HexNAc3-Hex2-PEP -->
    <g transform="translate(310.547222 331.404624) rotate(-90) scale(0.08 -0.08)">
     <use xlink:href="#Arial-BoldMT-59"/>
     <use xlink:href="#Arial-BoldMT-59" transform="translate(66.699219 0)"/>
     <use xlink:href="#Arial-BoldMT-2d" transform="translate(127.898438 0)"/>
     <use xlink:href="#Arial-BoldMT-48" transform="translate(161.199219 0)"/>
     <use xlink:href="#Arial-BoldMT-65" transform="translate(233.416016 0)"/>
     <use xlink:href="#Arial-BoldMT-78" transform="translate(289.03125 0)"/>
     <use xlink:href="#Arial-BoldMT-4e" transform="translate(344.646484 0)"/>
     <use xlink:href="#Arial-BoldMT-41" transform="translate(416.863281 0)"/>
     <use xlink:href="#Arial-BoldMT-63" transform="translate(489.080078 0)"/>
     <use xlink:href="#Arial-BoldMT-33" transform="translate(544.695312 0)"/>
     <use xlink:href="#Arial-BoldMT-2d" transform="translate(600.310547 0)"/>
     <use xlink:href="#Arial-BoldMT-48" transform="translate(633.611328 0)"/>
     <use xlink:href="#Arial-BoldMT-65" transform="translate(705.828125 0)"/>
     <use xlink:href="#Arial-BoldMT-78" transform="translate(761.443359 0)"/>
     <use xlink:href="#Arial-BoldMT-32" transform="translate(817.058594 0)"/>
     <use xlink:href="#Arial-BoldMT-2d" transform="translate(872.673828 0)"/>
     <use xlink:href="#Arial-BoldMT-50" transform="translate(905.974609 0)"/>
     <use xlink:href="#Arial-BoldMT-45" transform="translate(972.673828 0)"/>
     <use xlink:href="#Arial-BoldMT-50" transform="translate(1039.373047 0)"/>
    </g>
   </g>
   <g id="text_53">
    <!-- 2H+ -->
    <g style="fill: #ff0000" transform="translate(322.08463 361.147442) scale(0.07 -0.07)">
     <use xlink:href="#Arial-BoldMT-32"/>
     <use xlink:href="#Arial-BoldMT-48" transform="translate(55.615234 0)"/>
     <use xlink:href="#Arial-BoldMT-2b" transform="translate(127.832031 0)"/>
    </g>
   </g>
   <g id="text_54">
    <!-- 1418.62 -->
    <g style="fill: #0000ff" transform="translate(314.145333 340.662316) scale(0.08 -0.08)">
     <use xlink:href="#Arial-BoldMT-31"/>
     <use xlink:href="#Arial-BoldMT-34" transform="translate(55.615234 0)"/>
     <use xlink:href="#Arial-BoldMT-31" transform="translate(111.230469 0)"/>
     <use xlink:href="#Arial-BoldMT-38" transform="translate(166.845703 0)"/>
     <use xlink:href="#Arial-BoldMT-2e" transform="translate(222.460938 0)"/>
     <use xlink:href="#Arial-BoldMT-36" transform="translate(250.244141 0)"/>
     <use xlink:href="#Arial-BoldMT-32" transform="translate(305.859375 0)"/>
    </g>
   </g>
   <g id="text_55">
    <!-- YY-HexNAc3-Hex3-PEP -->
    <g transform="translate(330.676583 327.749794) rotate(-90) scale(0.08 -0.08)">
     <use xlink:href="#Arial-BoldMT-59"/>
     <use xlink:href="#Arial-BoldMT-59" transform="translate(66.699219 0)"/>
     <use xlink:href="#Arial-BoldMT-2d" transform="translate(127.898438 0)"/>
     <use xlink:href="#Arial-BoldMT-48" transform="translate(161.199219 0)"/>
     <use xlink:href="#Arial-BoldMT-65" transform="translate(233.416016 0)"/>
     <use xlink:href="#Arial-BoldMT-78" transform="translate(289.03125 0)"/>
     <use xlink:href="#Arial-BoldMT-4e" transform="translate(344.646484 0)"/>
     <use xlink:href="#Arial-BoldMT-41" transform="translate(416.863281 0)"/>
     <use xlink:href="#Arial-BoldMT-63" transform="translate(489.080078 0)"/>
     <use xlink:href="#Arial-BoldMT-33" transform="translate(544.695312 0)"/>
     <use xlink:href="#Arial-BoldMT-2d" transform="translate(600.310547 0)"/>
     <use xlink:href="#Arial-BoldMT-48" transform="translate(633.611328 0)"/>
     <use xlink:href="#Arial-BoldMT-65" transform="translate(705.828125 0)"/>
     <use xlink:href="#Arial-BoldMT-78" transform="translate(761.443359 0)"/>
     <use xlink:href="#Arial-BoldMT-33" transform="translate(817.058594 0)"/>
     <use xlink:href="#Arial-BoldMT-2d" transform="translate(872.673828 0)"/>
     <use xlink:href="#Arial-BoldMT-50" transform="translate(905.974609 0)"/>
     <use xlink:href="#Arial-BoldMT-45" transform="translate(972.673828 0)"/>
     <use xlink:href="#Arial-BoldMT-50" transform="translate(1039.373047 0)"/>
    </g>
   </g>
   <g id="text_56">
    <!-- 1H+ -->
    <g style="fill: #ff0000" transform="translate(402.142496 364.802272) scale(0.07 -0.07)">
     <use xlink:href="#Arial-BoldMT-31"/>
     <use xlink:href="#Arial-BoldMT-48" transform="translate(55.615234 0)"/>
     <use xlink:href="#Arial-BoldMT-2b" transform="translate(127.832031 0)"/>
    </g>
   </g>
   <g id="text_57">
    <!-- 1740.85 -->
    <g style="fill: #0000ff" transform="translate(394.2032 344.317147) scale(0.08 -0.08)">
     <use xlink:href="#Arial-BoldMT-31"/>
     <use xlink:href="#Arial-BoldMT-37" transform="translate(55.615234 0)"/>
     <use xlink:href="#Arial-BoldMT-34" transform="translate(111.230469 0)"/>
     <use xlink:href="#Arial-BoldMT-30" transform="translate(166.845703 0)"/>
     <use xlink:href="#Arial-BoldMT-2e" transform="translate(222.460938 0)"/>
     <use xlink:href="#Arial-BoldMT-38" transform="translate(250.244141 0)"/>
     <use xlink:href="#Arial-BoldMT-35" transform="translate(305.859375 0)"/>
    </g>
   </g>
   <g id="text_58">
    <!-- y15 -->
    <g transform="translate(401.987575 329.720874) scale(0.08 -0.08)">
     <defs>
      <path id="Arial-BoldMT-79" d="M 44 3319 
L 978 3319 
L 1772 963 
L 2547 3319 
L 3456 3319 
L 2284 125 
L 2075 -453 
Q 1959 -744 1854 -897 
Q 1750 -1050 1614 -1145 
Q 1478 -1241 1279 -1294 
Q 1081 -1347 831 -1347 
Q 578 -1347 334 -1294 
L 256 -606 
Q 463 -647 628 -647 
Q 934 -647 1081 -467 
Q 1228 -288 1306 -9 
L 44 3319 
z
" transform="scale(0.015625)"/>
     </defs>
     <use xlink:href="#Arial-BoldMT-79"/>
     <use xlink:href="#Arial-BoldMT-31" transform="translate(55.615234 0)"/>
     <use xlink:href="#Arial-BoldMT-35" transform="translate(111.230469 0)"/>
    </g>
   </g>
   <g id="text_59">
    <!-- 1H+ -->
    <g style="fill: #ff0000" transform="translate(452.59708 185.931551) scale(0.07 -0.07)">
     <use xlink:href="#Arial-BoldMT-31"/>
     <use xlink:href="#Arial-BoldMT-48" transform="translate(55.615234 0)"/>
     <use xlink:href="#Arial-BoldMT-2b" transform="translate(127.832031 0)"/>
    </g>
   </g>
   <g id="text_60">
    <!-- 1943.93 -->
    <g style="fill: #0000ff" transform="translate(444.657783 165.446426) scale(0.08 -0.08)">
     <use xlink:href="#Arial-BoldMT-31"/>
     <use xlink:href="#Arial-BoldMT-39" transform="translate(55.615234 0)"/>
     <use xlink:href="#Arial-BoldMT-34" transform="translate(111.230469 0)"/>
     <use xlink:href="#Arial-BoldMT-33" transform="translate(166.845703 0)"/>
     <use xlink:href="#Arial-BoldMT-2e" transform="translate(222.460938 0)"/>
     <use xlink:href="#Arial-BoldMT-39" transform="translate(250.244141 0)"/>
     <use xlink:href="#Arial-BoldMT-33" transform="translate(305.859375 0)"/>
    </g>
   </g>
   <g id="text_61">
    <!-- Y-HexNAc1-PEP -->
    <g transform="translate(461.189033 152.533903) rotate(-90) scale(0.08 -0.08)">
     <use xlink:href="#Arial-BoldMT-59"/>
     <use xlink:href="#Arial-BoldMT-2d" transform="translate(61.199219 0)"/>
     <use xlink:href="#Arial-BoldMT-48" transform="translate(94.5 0)"/>
     <use xlink:href="#Arial-BoldMT-65" transform="translate(166.716797 0)"/>
     <use xlink:href="#Arial-BoldMT-78" transform="translate(222.332031 0)"/>
     <use xlink:href="#Arial-BoldMT-4e" transform="translate(277.947266 0)"/>
     <use xlink:href="#Arial-BoldMT-41" transform="translate(350.164062 0)"/>
     <use xlink:href="#Arial-BoldMT-63" transform="translate(422.380859 0)"/>
     <use xlink:href="#Arial-BoldMT-31" transform="translate(477.996094 0)"/>
     <use xlink:href="#Arial-BoldMT-2d" transform="translate(533.611328 0)"/>
     <use xlink:href="#Arial-BoldMT-50" transform="translate(566.912109 0)"/>
     <use xlink:href="#Arial-BoldMT-45" transform="translate(633.611328 0)"/>
     <use xlink:href="#Arial-BoldMT-50" transform="translate(700.310547 0)"/>
    </g>
   </g>
   <g id="text_62">
    <!-- 1H+ -->
    <g style="fill: #ff0000" transform="translate(503.056385 363.45553) scale(0.07 -0.07)">
     <use xlink:href="#Arial-BoldMT-31"/>
     <use xlink:href="#Arial-BoldMT-48" transform="translate(55.615234 0)"/>
     <use xlink:href="#Arial-BoldMT-2b" transform="translate(127.832031 0)"/>
    </g>
   </g>
   <g id="text_63">
    <!-- 2147.03 -->
    <g style="fill: #0000ff" transform="translate(495.117088 342.970405) scale(0.08 -0.08)">
     <use xlink:href="#Arial-BoldMT-32"/>
     <use xlink:href="#Arial-BoldMT-31" transform="translate(55.615234 0)"/>
     <use xlink:href="#Arial-BoldMT-34" transform="translate(111.230469 0)"/>
     <use xlink:href="#Arial-BoldMT-37" transform="translate(166.845703 0)"/>
     <use xlink:href="#Arial-BoldMT-2e" transform="translate(222.460938 0)"/>
     <use xlink:href="#Arial-BoldMT-30" transform="translate(250.244141 0)"/>
     <use xlink:href="#Arial-BoldMT-33" transform="translate(305.859375 0)"/>
    </g>
   </g>
   <g id="text_64">
    <!-- Y-HexNAc2-PEP -->
    <g transform="translate(511.648338 330.057882) rotate(-90) scale(0.08 -0.08)">
     <use xlink:href="#Arial-BoldMT-59"/>
     <use xlink:href="#Arial-BoldMT-2d" transform="translate(61.199219 0)"/>
     <use xlink:href="#Arial-BoldMT-48" transform="translate(94.5 0)"/>
     <use xlink:href="#Arial-BoldMT-65" transform="translate(166.716797 0)"/>
     <use xlink:href="#Arial-BoldMT-78" transform="translate(222.332031 0)"/>
     <use xlink:href="#Arial-BoldMT-4e" transform="translate(277.947266 0)"/>
     <use xlink:href="#Arial-BoldMT-41" transform="translate(350.164062 0)"/>
     <use xlink:href="#Arial-BoldMT-63" transform="translate(422.380859 0)"/>
     <use xlink:href="#Arial-BoldMT-32" transform="translate(477.996094 0)"/>
     <use xlink:href="#Arial-BoldMT-2d" transform="translate(533.611328 0)"/>
     <use xlink:href="#Arial-BoldMT-50" transform="translate(566.912109 0)"/>
     <use xlink:href="#Arial-BoldMT-45" transform="translate(633.611328 0)"/>
     <use xlink:href="#Arial-BoldMT-50" transform="translate(700.310547 0)"/>
    </g>
   </g>
   <g id="text_65">
    <!-- 1H+ -->
    <g style="fill: #ff0000" transform="translate(543.311207 364.158624) scale(0.07 -0.07)">
     <use xlink:href="#Arial-BoldMT-31"/>
     <use xlink:href="#Arial-BoldMT-48" transform="translate(55.615234 0)"/>
     <use xlink:href="#Arial-BoldMT-2b" transform="translate(127.832031 0)"/>
    </g>
   </g>
   <g id="text_66">
    <!-- 2309.05 -->
    <g style="fill: #0000ff" transform="translate(535.37191 343.673498) scale(0.08 -0.08)">
     <use xlink:href="#Arial-BoldMT-32"/>
     <use xlink:href="#Arial-BoldMT-33" transform="translate(55.615234 0)"/>
     <use xlink:href="#Arial-BoldMT-30" transform="translate(111.230469 0)"/>
     <use xlink:href="#Arial-BoldMT-39" transform="translate(166.845703 0)"/>
     <use xlink:href="#Arial-BoldMT-2e" transform="translate(222.460938 0)"/>
     <use xlink:href="#Arial-BoldMT-30" transform="translate(250.244141 0)"/>
     <use xlink:href="#Arial-BoldMT-35" transform="translate(305.859375 0)"/>
    </g>
   </g>
   <g id="text_67">
    <!-- YY-HexNAc2-Hex1-PEP -->
    <g transform="translate(551.90316 330.760975) rotate(-90) scale(0.08 -0.08)">
     <use xlink:href="#Arial-BoldMT-59"/>
     <use xlink:href="#Arial-BoldMT-59" transform="translate(66.699219 0)"/>
     <use xlink:href="#Arial-BoldMT-2d" transform="translate(127.898438 0)"/>
     <use xlink:href="#Arial-BoldMT-48" transform="translate(161.199219 0)"/>
     <use xlink:href="#Arial-BoldMT-65" transform="translate(233.416016 0)"/>
     <use xlink:href="#Arial-BoldMT-78" transform="translate(289.03125 0)"/>
     <use xlink:href="#Arial-BoldMT-4e" transform="translate(344.646484 0)"/>
     <use xlink:href="#Arial-BoldMT-41" transform="translate(416.863281 0)"/>
     <use xlink:href="#Arial-BoldMT-63" transform="translate(489.080078 0)"/>
     <use xlink:href="#Arial-BoldMT-32" transform="translate(544.695312 0)"/>
     <use xlink:href="#Arial-BoldMT-2d" transform="translate(600.310547 0)"/>
     <use xlink:href="#Arial-BoldMT-48" transform="translate(633.611328 0)"/>
     <use xlink:href="#Arial-BoldMT-65" transform="translate(705.828125 0)"/>
     <use xlink:href="#Arial-BoldMT-78" transform="translate(761.443359 0)"/>
     <use xlink:href="#Arial-BoldMT-31" transform="translate(817.058594 0)"/>
     <use xlink:href="#Arial-BoldMT-2d" transform="translate(872.673828 0)"/>
     <use xlink:href="#Arial-BoldMT-50" transform="translate(905.974609 0)"/>
     <use xlink:href="#Arial-BoldMT-45" transform="translate(972.673828 0)"/>
     <use xlink:href="#Arial-BoldMT-50" transform="translate(1039.373047 0)"/>
    </g>
   </g>
   <g id="text_68">
    <!-- 1H+ -->
    <g style="fill: #ff0000" transform="translate(583.574476 339.358336) scale(0.07 -0.07)">
     <use xlink:href="#Arial-BoldMT-31"/>
     <use xlink:href="#Arial-BoldMT-48" transform="translate(55.615234 0)"/>
     <use xlink:href="#Arial-BoldMT-2b" transform="translate(127.832031 0)"/>
    </g>
   </g>
   <g id="text_69">
    <!-- 2471.11 -->
    <g style="fill: #0000ff" transform="translate(575.855179 318.873211) scale(0.08 -0.08)">
     <use xlink:href="#Arial-BoldMT-32"/>
     <use xlink:href="#Arial-BoldMT-34" transform="translate(55.615234 0)"/>
     <use xlink:href="#Arial-BoldMT-37" transform="translate(111.230469 0)"/>
     <use xlink:href="#Arial-BoldMT-31" transform="translate(166.845703 0)"/>
     <use xlink:href="#Arial-BoldMT-2e" transform="translate(222.460938 0)"/>
     <use xlink:href="#Arial-BoldMT-31" transform="translate(250.244141 0)"/>
     <use xlink:href="#Arial-BoldMT-31" transform="translate(300.359375 0)"/>
    </g>
   </g>
   <g id="text_70">
    <!-- Y-HexNAc2-Hex2-PEP -->
    <g transform="translate(592.166429 305.960688) rotate(-90) scale(0.08 -0.08)">
     <use xlink:href="#Arial-BoldMT-59"/>
     <use xlink:href="#Arial-BoldMT-2d" transform="translate(61.199219 0)"/>
     <use xlink:href="#Arial-BoldMT-48" transform="translate(94.5 0)"/>
     <use xlink:href="#Arial-BoldMT-65" transform="translate(166.716797 0)"/>
     <use xlink:href="#Arial-BoldMT-78" transform="translate(222.332031 0)"/>
     <use xlink:href="#Arial-BoldMT-4e" transform="translate(277.947266 0)"/>
     <use xlink:href="#Arial-BoldMT-41" transform="translate(350.164062 0)"/>
     <use xlink:href="#Arial-BoldMT-63" transform="translate(422.380859 0)"/>
     <use xlink:href="#Arial-BoldMT-32" transform="translate(477.996094 0)"/>
     <use xlink:href="#Arial-BoldMT-2d" transform="translate(533.611328 0)"/>
     <use xlink:href="#Arial-BoldMT-48" transform="translate(566.912109 0)"/>
     <use xlink:href="#Arial-BoldMT-65" transform="translate(639.128906 0)"/>
     <use xlink:href="#Arial-BoldMT-78" transform="translate(694.744141 0)"/>
     <use xlink:href="#Arial-BoldMT-32" transform="translate(750.359375 0)"/>
     <use xlink:href="#Arial-BoldMT-2d" transform="translate(805.974609 0)"/>
     <use xlink:href="#Arial-BoldMT-50" transform="translate(839.275391 0)"/>
     <use xlink:href="#Arial-BoldMT-45" transform="translate(905.974609 0)"/>
     <use xlink:href="#Arial-BoldMT-50" transform="translate(972.673828 0)"/>
    </g>
   </g>
   <g id="text_71">
    <!-- 1H+ -->
    <g style="fill: #ff0000" transform="translate(674.293994 364.802272) scale(0.07 -0.07)">
     <use xlink:href="#Arial-BoldMT-31"/>
     <use xlink:href="#Arial-BoldMT-48" transform="translate(55.615234 0)"/>
     <use xlink:href="#Arial-BoldMT-2b" transform="translate(127.832031 0)"/>
    </g>
   </g>
   <g id="text_72">
    <!-- 2836.26 -->
    <g style="fill: #0000ff" transform="translate(666.354697 344.317147) scale(0.08 -0.08)">
     <use xlink:href="#Arial-BoldMT-32"/>
     <use xlink:href="#Arial-BoldMT-38" transform="translate(55.615234 0)"/>
     <use xlink:href="#Arial-BoldMT-33" transform="translate(111.230469 0)"/>
     <use xlink:href="#Arial-BoldMT-36" transform="translate(166.845703 0)"/>
     <use xlink:href="#Arial-BoldMT-2e" transform="translate(222.460938 0)"/>
     <use xlink:href="#Arial-BoldMT-32" transform="translate(250.244141 0)"/>
     <use xlink:href="#Arial-BoldMT-36" transform="translate(305.859375 0)"/>
    </g>
   </g>
   <g id="text_73">
    <!-- YY-HexNAc3-Hex3-PEP -->
    <g transform="translate(682.885947 331.404624) rotate(-90) scale(0.08 -0.08)">
     <use xlink:href="#Arial-BoldMT-59"/>
     <use xlink:href="#Arial-BoldMT-59" transform="translate(66.699219 0)"/>
     <use xlink:href="#Arial-BoldMT-2d" transform="translate(127.898438 0)"/>
     <use xlink:href="#Arial-BoldMT-48" transform="translate(161.199219 0)"/>
     <use xlink:href="#Arial-BoldMT-65" transform="translate(233.416016 0)"/>
     <use xlink:href="#Arial-BoldMT-78" transform="translate(289.03125 0)"/>
     <use xlink:href="#Arial-BoldMT-4e" transform="translate(344.646484 0)"/>
     <use xlink:href="#Arial-BoldMT-41" transform="translate(416.863281 0)"/>
     <use xlink:href="#Arial-BoldMT-63" transform="translate(489.080078 0)"/>
     <use xlink:href="#Arial-BoldMT-33" transform="translate(544.695312 0)"/>
     <use xlink:href="#Arial-BoldMT-2d" transform="translate(600.310547 0)"/>
     <use xlink:href="#Arial-BoldMT-48" transform="translate(633.611328 0)"/>
     <use xlink:href="#Arial-BoldMT-65" transform="translate(705.828125 0)"/>
     <use xlink:href="#Arial-BoldMT-78" transform="translate(761.443359 0)"/>
     <use xlink:href="#Arial-BoldMT-33" transform="translate(817.058594 0)"/>
     <use xlink:href="#Arial-BoldMT-2d" transform="translate(872.673828 0)"/>
     <use xlink:href="#Arial-BoldMT-50" transform="translate(905.974609 0)"/>
     <use xlink:href="#Arial-BoldMT-45" transform="translate(972.673828 0)"/>
     <use xlink:href="#Arial-BoldMT-50" transform="translate(1039.373047 0)"/>
    </g>
   </g>
   <g id="text_74">
    <g id="patch_5">
     <path d="M 70.119054 66.827857 
L 122.608116 66.827857 
L 122.608116 45.924107 
L 70.119054 45.924107 
z
" style="fill: #ffffff; opacity: 0.7"/>
    </g>
    <!-- 1.83E5 -->
    <g transform="translate(74.179054 60.005045) scale(0.14 -0.14)">
     <use xlink:href="#Arial-BoldMT-31"/>
     <use xlink:href="#Arial-BoldMT-2e" transform="translate(55.615234 0)"/>
     <use xlink:href="#Arial-BoldMT-38" transform="translate(83.398438 0)"/>
     <use xlink:href="#Arial-BoldMT-33" transform="translate(139.013672 0)"/>
     <use xlink:href="#Arial-BoldMT-45" transform="translate(194.628906 0)"/>
     <use xlink:href="#Arial-BoldMT-35" transform="translate(261.328125 0)"/>
    </g>
   </g>
   <g id="text_75">
    <!-- MS2 Spectrum for LCPDCPLLAPLNDSR-5604 -->
    <g transform="translate(223.054175 17.391562) scale(0.14 -0.14)">
     <defs>
      <path id="Arial-BoldMT-4d" d="M 453 0 
L 453 4581 
L 1838 4581 
L 2669 1456 
L 3491 4581 
L 4878 4581 
L 4878 0 
L 4019 0 
L 4019 3606 
L 3109 0 
L 2219 0 
L 1313 3606 
L 1313 0 
L 453 0 
z
" transform="scale(0.015625)"/>
      <path id="Arial-BoldMT-53" d="M 231 1491 
L 1131 1578 
Q 1213 1125 1461 912 
Q 1709 700 2131 700 
Q 2578 700 2804 889 
Q 3031 1078 3031 1331 
Q 3031 1494 2936 1608 
Q 2841 1722 2603 1806 
Q 2441 1863 1863 2006 
Q 1119 2191 819 2459 
Q 397 2838 397 3381 
Q 397 3731 595 4036 
Q 794 4341 1167 4500 
Q 1541 4659 2069 4659 
Q 2931 4659 3367 4281 
Q 3803 3903 3825 3272 
L 2900 3231 
Q 2841 3584 2645 3739 
Q 2450 3894 2059 3894 
Q 1656 3894 1428 3728 
Q 1281 3622 1281 3444 
Q 1281 3281 1419 3166 
Q 1594 3019 2269 2859 
Q 2944 2700 3267 2529 
Q 3591 2359 3773 2064 
Q 3956 1769 3956 1334 
Q 3956 941 3737 597 
Q 3519 253 3119 86 
Q 2719 -81 2122 -81 
Q 1253 -81 787 320 
Q 322 722 231 1491 
z
" transform="scale(0.015625)"/>
      <path id="Arial-BoldMT-70" d="M 434 3319 
L 1253 3319 
L 1253 2831 
Q 1413 3081 1684 3237 
Q 1956 3394 2288 3394 
Q 2866 3394 3269 2941 
Q 3672 2488 3672 1678 
Q 3672 847 3265 386 
Q 2859 -75 2281 -75 
Q 2006 -75 1782 34 
Q 1559 144 1313 409 
L 1313 -1263 
L 434 -1263 
L 434 3319 
z
M 1303 1716 
Q 1303 1156 1525 889 
Q 1747 622 2066 622 
Q 2372 622 2575 867 
Q 2778 1113 2778 1672 
Q 2778 2194 2568 2447 
Q 2359 2700 2050 2700 
Q 1728 2700 1515 2451 
Q 1303 2203 1303 1716 
z
" transform="scale(0.015625)"/>
      <path id="Arial-BoldMT-72" d="M 1300 0 
L 422 0 
L 422 3319 
L 1238 3319 
L 1238 2847 
Q 1447 3181 1614 3287 
Q 1781 3394 1994 3394 
Q 2294 3394 2572 3228 
L 2300 2463 
Q 2078 2606 1888 2606 
Q 1703 2606 1575 2504 
Q 1447 2403 1373 2137 
Q 1300 1872 1300 1025 
L 1300 0 
z
" transform="scale(0.015625)"/>
      <path id="Arial-BoldMT-66" d="M 75 3319 
L 563 3319 
L 563 3569 
Q 563 3988 652 4194 
Q 741 4400 980 4529 
Q 1219 4659 1584 4659 
Q 1959 4659 2319 4547 
L 2200 3934 
Q 1991 3984 1797 3984 
Q 1606 3984 1523 3895 
Q 1441 3806 1441 3553 
L 1441 3319 
L 2097 3319 
L 2097 2628 
L 1441 2628 
L 1441 0 
L 563 0 
L 563 2628 
L 75 2628 
L 75 3319 
z
" transform="scale(0.015625)"/>
      <path id="Arial-BoldMT-6f" d="M 256 1706 
Q 256 2144 472 2553 
Q 688 2963 1083 3178 
Q 1478 3394 1966 3394 
Q 2719 3394 3200 2905 
Q 3681 2416 3681 1669 
Q 3681 916 3195 420 
Q 2709 -75 1972 -75 
Q 1516 -75 1102 131 
Q 688 338 472 736 
Q 256 1134 256 1706 
z
M 1156 1659 
Q 1156 1166 1390 903 
Q 1625 641 1969 641 
Q 2313 641 2545 903 
Q 2778 1166 2778 1666 
Q 2778 2153 2545 2415 
Q 2313 2678 1969 2678 
Q 1625 2678 1390 2415 
Q 1156 2153 1156 1659 
z
" transform="scale(0.015625)"/>
      <path id="Arial-BoldMT-4c" d="M 491 0 
L 491 4544 
L 1416 4544 
L 1416 772 
L 3716 772 
L 3716 0 
L 491 0 
z
" transform="scale(0.015625)"/>
      <path id="Arial-BoldMT-43" d="M 3397 1684 
L 4294 1400 
Q 4088 650 3608 286 
Q 3128 -78 2391 -78 
Q 1478 -78 890 545 
Q 303 1169 303 2250 
Q 303 3394 893 4026 
Q 1484 4659 2447 4659 
Q 3288 4659 3813 4163 
Q 4125 3869 4281 3319 
L 3366 3100 
Q 3284 3456 3026 3662 
Q 2769 3869 2400 3869 
Q 1891 3869 1573 3503 
Q 1256 3138 1256 2319 
Q 1256 1450 1568 1081 
Q 1881 713 2381 713 
Q 2750 713 3015 947 
Q 3281 1181 3397 1684 
z
" transform="scale(0.015625)"/>
      <path id="Arial-BoldMT-44" d="M 463 4581 
L 2153 4581 
Q 2725 4581 3025 4494 
Q 3428 4375 3715 4072 
Q 4003 3769 4153 3330 
Q 4303 2891 4303 2247 
Q 4303 1681 4163 1272 
Q 3991 772 3672 463 
Q 3431 228 3022 97 
Q 2716 0 2203 0 
L 463 0 
L 463 4581 
z
M 1388 3806 
L 1388 772 
L 2078 772 
Q 2466 772 2638 816 
Q 2863 872 3011 1006 
Q 3159 1141 3253 1448 
Q 3347 1756 3347 2288 
Q 3347 2819 3253 3103 
Q 3159 3388 2990 3547 
Q 2822 3706 2563 3763 
Q 2369 3806 1803 3806 
L 1388 3806 
z
" transform="scale(0.015625)"/>
     </defs>
     <use xlink:href="#Arial-BoldMT-4d"/>
     <use xlink:href="#Arial-BoldMT-53" transform="translate(83.300781 0)"/>
     <use xlink:href="#Arial-BoldMT-32" transform="translate(150 0)"/>
     <use xlink:href="#Arial-BoldMT-20" transform="translate(205.615234 0)"/>
     <use xlink:href="#Arial-BoldMT-53" transform="translate(233.398438 0)"/>
     <use xlink:href="#Arial-BoldMT-70" transform="translate(300.097656 0)"/>
     <use xlink:href="#Arial-BoldMT-65" transform="translate(361.181641 0)"/>
     <use xlink:href="#Arial-BoldMT-63" transform="translate(416.796875 0)"/>
     <use xlink:href="#Arial-BoldMT-74" transform="translate(472.412109 0)"/>
     <use xlink:href="#Arial-BoldMT-72" transform="translate(505.712891 0)"/>
     <use xlink:href="#Arial-BoldMT-75" transform="translate(544.628906 0)"/>
     <use xlink:href="#Arial-BoldMT-6d" transform="translate(605.712891 0)"/>
     <use xlink:href="#Arial-BoldMT-20" transform="translate(694.628906 0)"/>
     <use xlink:href="#Arial-BoldMT-66" transform="translate(722.412109 0)"/>
     <use xlink:href="#Arial-BoldMT-6f" transform="translate(755.712891 0)"/>
     <use xlink:href="#Arial-BoldMT-72" transform="translate(816.796875 0)"/>
     <use xlink:href="#Arial-BoldMT-20" transform="translate(855.712891 0)"/>
     <use xlink:href="#Arial-BoldMT-4c" transform="translate(883.496094 0)"/>
     <use xlink:href="#Arial-BoldMT-43" transform="translate(944.580078 0)"/>
     <use xlink:href="#Arial-BoldMT-50" transform="translate(1016.796875 0)"/>
     <use xlink:href="#Arial-BoldMT-44" transform="translate(1083.496094 0)"/>
     <use xlink:href="#Arial-BoldMT-43" transform="translate(1155.712891 0)"/>
     <use xlink:href="#Arial-BoldMT-50" transform="translate(1227.929688 0)"/>
     <use xlink:href="#Arial-BoldMT-4c" transform="translate(1294.628906 0)"/>
     <use xlink:href="#Arial-BoldMT-4c" transform="translate(1355.712891 0)"/>
     <use xlink:href="#Arial-BoldMT-41" transform="translate(1416.796875 0)"/>
     <use xlink:href="#Arial-BoldMT-50" transform="translate(1489.013672 0)"/>
     <use xlink:href="#Arial-BoldMT-4c" transform="translate(1555.712891 0)"/>
     <use xlink:href="#Arial-BoldMT-4e" transform="translate(1616.796875 0)"/>
     <use xlink:href="#Arial-BoldMT-44" transform="translate(1689.013672 0)"/>
     <use xlink:href="#Arial-BoldMT-53" transform="translate(1761.230469 0)"/>
     <use xlink:href="#Arial-BoldMT-52" transform="translate(1827.929688 0)"/>
     <use xlink:href="#Arial-BoldMT-2d" transform="translate(1900.146484 0)"/>
     <use xlink:href="#Arial-BoldMT-35" transform="translate(1933.447266 0)"/>
     <use xlink:href="#Arial-BoldMT-36" transform="translate(1989.0625 0)"/>
     <use xlink:href="#Arial-BoldMT-30" transform="translate(2044.677734 0)"/>
     <use xlink:href="#Arial-BoldMT-34" transform="translate(2100.292969 0)"/>
    </g>
    <!-- Precursor m/z: 1223.9901, RT: 89.50 min -->
    <g transform="translate(241.295738 32.1795) scale(0.14 -0.14)">
     <defs>
      <path id="Arial-BoldMT-73" d="M 150 947 
L 1031 1081 
Q 1088 825 1259 692 
Q 1431 559 1741 559 
Q 2081 559 2253 684 
Q 2369 772 2369 919 
Q 2369 1019 2306 1084 
Q 2241 1147 2013 1200 
Q 950 1434 666 1628 
Q 272 1897 272 2375 
Q 272 2806 612 3100 
Q 953 3394 1669 3394 
Q 2350 3394 2681 3172 
Q 3013 2950 3138 2516 
L 2309 2363 
Q 2256 2556 2107 2659 
Q 1959 2763 1684 2763 
Q 1338 2763 1188 2666 
Q 1088 2597 1088 2488 
Q 1088 2394 1175 2328 
Q 1294 2241 1995 2081 
Q 2697 1922 2975 1691 
Q 3250 1456 3250 1038 
Q 3250 581 2869 253 
Q 2488 -75 1741 -75 
Q 1063 -75 667 200 
Q 272 475 150 947 
z
" transform="scale(0.015625)"/>
      <path id="Arial-BoldMT-3a" d="M 628 2441 
L 628 3319 
L 1506 3319 
L 1506 2441 
L 628 2441 
z
M 628 0 
L 628 878 
L 1506 878 
L 1506 0 
L 628 0 
z
" transform="scale(0.015625)"/>
      <path id="Arial-BoldMT-2c" d="M 438 878 
L 1316 878 
L 1316 250 
Q 1316 -131 1250 -351 
Q 1184 -572 1001 -747 
Q 819 -922 538 -1022 
L 366 -659 
Q 631 -572 743 -419 
Q 856 -266 863 0 
L 438 0 
L 438 878 
z
" transform="scale(0.015625)"/>
      <path id="Arial-BoldMT-54" d="M 1497 0 
L 1497 3806 
L 138 3806 
L 138 4581 
L 3778 4581 
L 3778 3806 
L 2422 3806 
L 2422 0 
L 1497 0 
z
" transform="scale(0.015625)"/>
     </defs>
     <use xlink:href="#Arial-BoldMT-50"/>
     <use xlink:href="#Arial-BoldMT-72" transform="translate(66.699219 0)"/>
     <use xlink:href="#Arial-BoldMT-65" transform="translate(105.615234 0)"/>
     <use xlink:href="#Arial-BoldMT-63" transform="translate(161.230469 0)"/>
     <use xlink:href="#Arial-BoldMT-75" transform="translate(216.845703 0)"/>
     <use xlink:href="#Arial-BoldMT-72" transform="translate(277.929688 0)"/>
     <use xlink:href="#Arial-BoldMT-73" transform="translate(316.845703 0)"/>
     <use xlink:href="#Arial-BoldMT-6f" transform="translate(372.460938 0)"/>
     <use xlink:href="#Arial-BoldMT-72" transform="translate(433.544922 0)"/>
     <use xlink:href="#Arial-BoldMT-20" transform="translate(472.460938 0)"/>
     <use xlink:href="#Arial-BoldMT-6d" transform="translate(500.244141 0)"/>
     <use xlink:href="#Arial-BoldMT-2f" transform="translate(589.160156 0)"/>
     <use xlink:href="#Arial-BoldMT-7a" transform="translate(616.943359 0)"/>
     <use xlink:href="#Arial-BoldMT-3a" transform="translate(666.943359 0)"/>
     <use xlink:href="#Arial-BoldMT-20" transform="translate(700.244141 0)"/>
     <use xlink:href="#Arial-BoldMT-31" transform="translate(728.027344 0)"/>
     <use xlink:href="#Arial-BoldMT-32" transform="translate(783.642578 0)"/>
     <use xlink:href="#Arial-BoldMT-32" transform="translate(839.257812 0)"/>
     <use xlink:href="#Arial-BoldMT-33" transform="translate(894.873047 0)"/>
     <use xlink:href="#Arial-BoldMT-2e" transform="translate(950.488281 0)"/>
     <use xlink:href="#Arial-BoldMT-39" transform="translate(978.271484 0)"/>
     <use xlink:href="#Arial-BoldMT-39" transform="translate(1033.886719 0)"/>
     <use xlink:href="#Arial-BoldMT-30" transform="translate(1089.501953 0)"/>
     <use xlink:href="#Arial-BoldMT-31" transform="translate(1145.117188 0)"/>
     <use xlink:href="#Arial-BoldMT-2c" transform="translate(1200.732422 0)"/>
     <use xlink:href="#Arial-BoldMT-20" transform="translate(1228.515625 0)"/>
     <use xlink:href="#Arial-BoldMT-52" transform="translate(1256.298828 0)"/>
     <use xlink:href="#Arial-BoldMT-54" transform="translate(1328.515625 0)"/>
     <use xlink:href="#Arial-BoldMT-3a" transform="translate(1378.474609 0)"/>
     <use xlink:href="#Arial-BoldMT-20" transform="translate(1411.775391 0)"/>
     <use xlink:href="#Arial-BoldMT-38" transform="translate(1439.558594 0)"/>
     <use xlink:href="#Arial-BoldMT-39" transform="translate(1495.173828 0)"/>
     <use xlink:href="#Arial-BoldMT-2e" transform="translate(1550.789062 0)"/>
     <use xlink:href="#Arial-BoldMT-35" transform="translate(1578.572266 0)"/>
     <use xlink:href="#Arial-BoldMT-30" transform="translate(1634.1875 0)"/>
     <use xlink:href="#Arial-BoldMT-20" transform="translate(1689.802734 0)"/>
     <use xlink:href="#Arial-BoldMT-6d" transform="translate(1717.585938 0)"/>
     <use xlink:href="#Arial-BoldMT-69" transform="translate(1806.501953 0)"/>
     <use xlink:href="#Arial-BoldMT-6e" transform="translate(1834.285156 0)"/>
    </g>
    <!-- Showing top 20 of 40 fragments -->
    <g transform="translate(268.1823 47.172187) scale(0.14 -0.14)">
     <defs>
      <path id="Arial-BoldMT-68" d="M 1334 4581 
L 1334 2897 
Q 1759 3394 2350 3394 
Q 2653 3394 2897 3281 
Q 3141 3169 3264 2994 
Q 3388 2819 3433 2606 
Q 3478 2394 3478 1947 
L 3478 0 
L 2600 0 
L 2600 1753 
Q 2600 2275 2550 2415 
Q 2500 2556 2373 2639 
Q 2247 2722 2056 2722 
Q 1838 2722 1666 2615 
Q 1494 2509 1414 2295 
Q 1334 2081 1334 1663 
L 1334 0 
L 456 0 
L 456 4581 
L 1334 4581 
z
" transform="scale(0.015625)"/>
      <path id="Arial-BoldMT-77" d="M 1078 0 
L 28 3319 
L 881 3319 
L 1503 1144 
L 2075 3319 
L 2922 3319 
L 3475 1144 
L 4109 3319 
L 4975 3319 
L 3909 0 
L 3066 0 
L 2494 2134 
L 1931 0 
L 1078 0 
z
" transform="scale(0.015625)"/>
      <path id="Arial-BoldMT-67" d="M 378 -219 
L 1381 -341 
Q 1406 -516 1497 -581 
Q 1622 -675 1891 -675 
Q 2234 -675 2406 -572 
Q 2522 -503 2581 -350 
Q 2622 -241 2622 53 
L 2622 538 
Q 2228 0 1628 0 
Q 959 0 569 566 
Q 263 1013 263 1678 
Q 263 2513 664 2953 
Q 1066 3394 1663 3394 
Q 2278 3394 2678 2853 
L 2678 3319 
L 3500 3319 
L 3500 341 
Q 3500 -247 3403 -537 
Q 3306 -828 3131 -993 
Q 2956 -1159 2664 -1253 
Q 2372 -1347 1925 -1347 
Q 1081 -1347 728 -1058 
Q 375 -769 375 -325 
Q 375 -281 378 -219 
z
M 1163 1728 
Q 1163 1200 1367 954 
Q 1572 709 1872 709 
Q 2194 709 2416 961 
Q 2638 1213 2638 1706 
Q 2638 2222 2425 2472 
Q 2213 2722 1888 2722 
Q 1572 2722 1367 2476 
Q 1163 2231 1163 1728 
z
" transform="scale(0.015625)"/>
     </defs>
     <use xlink:href="#Arial-BoldMT-53"/>
     <use xlink:href="#Arial-BoldMT-68" transform="translate(66.699219 0)"/>
     <use xlink:href="#Arial-BoldMT-6f" transform="translate(127.783203 0)"/>
     <use xlink:href="#Arial-BoldMT-77" transform="translate(188.867188 0)"/>
     <use xlink:href="#Arial-BoldMT-69" transform="translate(266.650391 0)"/>
     <use xlink:href="#Arial-BoldMT-6e" transform="translate(294.433594 0)"/>
     <use xlink:href="#Arial-BoldMT-67" transform="translate(355.517578 0)"/>
     <use xlink:href="#Arial-BoldMT-20" transform="translate(416.601562 0)"/>
     <use xlink:href="#Arial-BoldMT-74" transform="translate(444.384766 0)"/>
     <use xlink:href="#Arial-BoldMT-6f" transform="translate(477.685547 0)"/>
     <use xlink:href="#Arial-BoldMT-70" transform="translate(538.769531 0)"/>
     <use xlink:href="#Arial-BoldMT-20" transform="translate(599.853516 0)"/>
     <use xlink:href="#Arial-BoldMT-32" transform="translate(627.636719 0)"/>
     <use xlink:href="#Arial-BoldMT-30" transform="translate(683.251953 0)"/>
     <use xlink:href="#Arial-BoldMT-20" transform="translate(738.867188 0)"/>
     <use xlink:href="#Arial-BoldMT-6f" transform="translate(766.650391 0)"/>
     <use xlink:href="#Arial-BoldMT-66" transform="translate(827.734375 0)"/>
     <use xlink:href="#Arial-BoldMT-20" transform="translate(861.035156 0)"/>
     <use xlink:href="#Arial-BoldMT-34" transform="translate(888.818359 0)"/>
     <use xlink:href="#Arial-BoldMT-30" transform="translate(944.433594 0)"/>
     <use xlink:href="#Arial-BoldMT-20" transform="translate(1000.048828 0)"/>
     <use xlink:href="#Arial-BoldMT-66" transform="translate(1027.832031 0)"/>
     <use xlink:href="#Arial-BoldMT-72" transform="translate(1061.132812 0)"/>
     <use xlink:href="#Arial-BoldMT-61" transform="translate(1100.048828 0)"/>
     <use xlink:href="#Arial-BoldMT-67" transform="translate(1155.664062 0)"/>
     <use xlink:href="#Arial-BoldMT-6d" transform="translate(1216.748047 0)"/>
     <use xlink:href="#Arial-BoldMT-65" transform="translate(1305.664062 0)"/>
     <use xlink:href="#Arial-BoldMT-6e" transform="translate(1361.279297 0)"/>
     <use xlink:href="#Arial-BoldMT-74" transform="translate(1422.363281 0)"/>
     <use xlink:href="#Arial-BoldMT-73" transform="translate(1455.664062 0)"/>
    </g>
   </g>
  </g>
 </g>
 <defs>
  <clipPath id="p09cfb1db12">
   <rect x="54.694063" y="53.172187" width="638.540538" height="318.808"/>
  </clipPath>
 </defs>
</svg>
